<?xml version="1.0" encoding="utf-8"?>
<!-- Generator: Adobe Illustrator 21.0.0, SVG Export Plug-In . SVG Version: 6.00 Build 0)  -->
<svg version="1.1" id="svg4908" xmlns="http://www.w3.org/2000/svg" xmlns:xlink="http://www.w3.org/1999/xlink" x="0px" y="0px"
	 viewBox="0 0 48 48" style="enable-background:new 0 0 48 48;" xml:space="preserve">
<style type="text/css">
	.st0{fill:#FFFFFF;}
</style>
<g>
	<path class="st0" d="M22.5,27.2c0,1.1-1.3,2.9-6.7,2.9c-4.5,0-6-0.7-6-2.5c0-2.3,0-4.2,0-5.7V15H4v12.3c0,2.5,1.4,4.3,3.2,5.5
		c0.4,0.3,0.8,0.5,1.3,0.7c0,0,0.1,0,0.1,0.1c0.1,0,0.2,0.1,0.3,0.1c0,0,0,0,0.1,0c0.4,0.2,0.9,0.4,1.3,0.5c1.8,0.6,3.6,0.8,5.5,0.7
		c3.9,0,6.9-0.6,8.9-1.9c2.1-1.3,3.5-3.6,3.6-6.1V15h-5.8V27.2z"/>
	<path class="st0" d="M34.5,24c2.6-2.3,11.5-9,11.5-9h-8.2l-8.4,7.8c-1,0.9-1,2.5-0.1,3.6c0,0.1,0.1,0.1,0.1,0.1
		c1.1,1.1,2.3,2.2,3.4,3.3c0.1,0.1,0.1,0.2,0.2,0.2c2.4,2.3,5,4.9,5,4.9h7.7L34.5,24.1L34.5,24z"/>
</g>
</svg>
