<svg xmlns="http://www.w3.org/2000/svg"  viewBox="0 0 16 16">
  <g fill="none" fill-rule="evenodd">
    <path fill="#F7F9FC" stroke="#2FB3E8" stroke-width="2" d="M5.1277704,1 L10.8722296,1 C12.3720699,1 12.9300026,1.12081769 13.4820925,1.41607861 C13.9570983,1.67011445 14.3298856,2.04290172 14.5839214,2.51790745 C14.8791823,3.06999737 15,3.62793014 15,5.1277704 L15,5.1277704 L15,10.8722296 C15,12.3720699 14.8791823,12.9300026 14.5839214,13.4820925 C14.3298856,13.9570983 13.9570983,14.3298856 13.4820925,14.5839214 C12.9300026,14.8791823 12.3720699,15 10.8722296,15 L10.8722296,15 L5.1277704,15 C3.62793014,15 3.06999737,14.8791823 2.51790745,14.5839214 C2.04290172,14.3298856 1.67011445,13.9570983 1.41607861,13.4820925 C1.12081769,12.9300026 1,12.3720699 1,10.8722296 L1,10.8722296 L1,5.1277704 C1,3.62793014 1.12081769,3.06999737 1.41607861,2.51790745 C1.67011445,2.04290172 2.04290172,1.67011445 2.51790745,1.41607861 C3.06999737,1.12081769 3.62793014,1 5.1277704,1 L5.1277704,1 Z"/>
    <path fill="#2FB3E8" fill-rule="nonzero" d="M11.6095656,4.68765248 L12.3904344,5.31234752 C12.6060654,5.4848523 12.6410261,5.79949848 12.4685213,6.01512945 L7.64301704,12.0470098 C7.47051227,12.2626407 7.15586608,12.2976014 6.94023512,12.1250966 C6.93002911,12.1169318 6.92014717,12.10837 6.91061207,12.0994308 L3.68082747,9.07150777 C3.47937134,8.88264264 3.46916431,8.56622474 3.65802944,8.3647686 L4.34197056,7.6352314 C4.53074655,7.43369169 4.84716445,7.42348466 5.04862059,7.61234979 C5.04865031,7.61237765 5.04868002,7.61240551 5.04862614,7.6125225 L7.094,9.531 L7.094,9.531 L10.9067571,4.76571811 C11.0792948,4.5501305 11.3939238,4.51518256 11.6095656,4.68765248 Z"/>
  </g>
</svg>
