<svg xmlns="http://www.w3.org/2000/svg"  viewBox="0 0 16 16">
  <path fill="#FFF" fill-rule="evenodd" stroke="#A8A8A8" stroke-width="2" d="M5.1277704,1 L10.8722296,1 C12.3720699,1 12.9300026,1.12081769 13.4820925,1.41607861 C13.9570983,1.67011445 14.3298856,2.04290172 14.5839214,2.51790745 C14.8791823,3.06999737 15,3.62793014 15,5.1277704 L15,5.1277704 L15,10.8722296 C15,12.3720699 14.8791823,12.9300026 14.5839214,13.4820925 C14.3298856,13.9570983 13.9570983,14.3298856 13.4820925,14.5839214 C12.9300026,14.8791823 12.3720699,15 10.8722296,15 L10.8722296,15 L5.1277704,15 C3.62793014,15 3.06999737,14.8791823 2.51790745,14.5839214 C2.04290172,14.3298856 1.67011445,13.9570983 1.41607861,13.4820925 C1.12081769,12.9300026 1,12.3720699 1,10.8722296 L1,10.8722296 L1,5.1277704 C1,3.62793014 1.12081769,3.06999737 1.41607861,2.51790745 C1.67011445,2.04290172 2.04290172,1.67011445 2.51790745,1.41607861 C3.06999737,1.12081769 3.62793014,1 5.1277704,1 L5.1277704,1 Z"/>
</svg>
