<svg id="图层_1" data-name="图层 1" xmlns="http://www.w3.org/2000/svg" viewBox="0 0 64 64"><defs><style>.cls-1{fill:#ffc819;}.cls-2{fill:#ffe317;}</style></defs><title>100-晴-SunnyClear</title><circle class="cls-1" cx="32" cy="32" r="13.76"/><path class="cls-2" d="M12.71,33.44H4.47a1.48,1.48,0,0,1,0-2.95h8.24a1.48,1.48,0,1,1,0,2.95Z"/><path class="cls-2" d="M59.53,33.51h-8a1.48,1.48,0,0,1,0-2.95h8a1.48,1.48,0,0,1,0,2.95Z"/><path class="cls-2" d="M32,61a1.48,1.48,0,0,1-1.48-1.47V51.41a1.48,1.48,0,1,1,2.95,0v8.12A1.47,1.47,0,0,1,32,61Z"/><path class="cls-2" d="M32,14.07a1.47,1.47,0,0,1-1.47-1.48V4.47a1.48,1.48,0,0,1,2.95,0v8.12A1.48,1.48,0,0,1,32,14.07Z"/><line class="cls-2" x1="12.56" y1="12.52" x2="18.35" y2="18.31"/><path class="cls-2" d="M18.35,19.78a1.45,1.45,0,0,1-1-.43l-5.79-5.79a1.47,1.47,0,0,1,2.08-2.09l5.79,5.79a1.47,1.47,0,0,1,0,2.09A1.44,1.44,0,0,1,18.35,19.78Z"/><line class="cls-2" x1="45.77" y1="45.81" x2="51.44" y2="51.48"/><path class="cls-2" d="M51.44,53a1.45,1.45,0,0,1-1-.43l-5.67-5.67a1.47,1.47,0,1,1,2.08-2.09l5.67,5.67a1.47,1.47,0,0,1,0,2.09A1.44,1.44,0,0,1,51.44,53Z"/><line class="cls-2" x1="12.52" y1="51.44" x2="18.25" y2="45.71"/><path class="cls-2" d="M12.51,52.92a1.48,1.48,0,0,1-1-2.52l5.73-5.73a1.47,1.47,0,0,1,2.09,2.08l-5.73,5.73A1.49,1.49,0,0,1,12.51,52.92Z"/><line class="cls-2" x1="45.69" y1="18.35" x2="51.48" y2="12.56"/><path class="cls-2" d="M45.69,19.83a1.48,1.48,0,0,1-1-.44,1.46,1.46,0,0,1,0-2.08l5.79-5.79a1.47,1.47,0,1,1,2.09,2.08l-5.79,5.79A1.49,1.49,0,0,1,45.69,19.83Z"/></svg>