<svg id="图层_1" data-name="图层 1" xmlns="http://www.w3.org/2000/svg" viewBox="0 0 64 64"><defs><style>.cls-1{fill:#e0e0e0;}.cls-2{fill:#fff;}</style></defs><title>101-多云-Cloudy</title><path class="cls-1" d="M51,18.51h-.17A11.29,11.29,0,0,0,40.12,11a11.17,11.17,0,0,0-11.3,11c0,.23,0,.47,0,.7A7.83,7.83,0,0,0,23,30.22h0A7.9,7.9,0,0,0,31,38H51a9.91,9.91,0,0,0,10-9.75h0A9.9,9.9,0,0,0,51,18.51Z"/><g id="锁屏title_深" data-name="锁屏title/深"><g id="锁屏title"><g id="编组-2"><g id="天气图标"><g id="天气_样式1" data-name="天气/样式1"><g id="天气"><path id="路径" class="cls-2" d="M12.67,52A9.45,9.45,0,0,1,3,42.78a9.45,9.45,0,0,1,9.67-9.21h0c0-.17,0-.34,0-.52,0-8.31,7.07-15,15.79-15a15.91,15.91,0,0,1,13.9,7.91,14.75,14.75,0,0,1,1.89-.13C51.84,25.78,58,31.65,58,38.89S51.84,52,44.25,52Z"/></g></g></g></g></g></g></svg>