<svg id="图层_1" data-name="图层 1" xmlns="http://www.w3.org/2000/svg" viewBox="0 0 64 64"><defs><style>.cls-1,.cls-2,.cls-3,.cls-4,.cls-5{fill:#fff;}.cls-2{opacity:0.9;}.cls-3{opacity:0.63;}.cls-4{opacity:0.45;}.cls-5{opacity:0.3;}</style></defs><title>212-龙卷风-Tornado</title><path class="cls-1" d="M56.92,10H7.08A2,2,0,0,1,5,8,2,2,0,0,1,7.08,6H56.92A2,2,0,0,1,59,8,2,2,0,0,1,56.92,10Z"/><path class="cls-1" d="M52.91,18H13.09a2,2,0,1,1,0-4H52.91a2,2,0,1,1,0,4Z"/><path class="cls-1" d="M50.41,26H19.59a2,2,0,1,1,0-4H50.41a2,2,0,1,1,0,4Z"/><path class="cls-2" d="M46.47,34H23.53a2,2,0,0,1-2-2V32a2,2,0,0,1,2-1.95H46.47a2,2,0,0,1,2,1.95V32A2,2,0,0,1,46.47,34Z"/><path class="cls-3" d="M39.08,42H22.92A1.89,1.89,0,0,1,21,40.17v-.34A1.89,1.89,0,0,1,22.92,38H39.08A1.89,1.89,0,0,1,41,39.83v.34A1.89,1.89,0,0,1,39.08,42Z"/><path class="cls-4" d="M32.14,50H21.86A1.85,1.85,0,0,1,20,48.16v-.32A1.85,1.85,0,0,1,21.86,46H32.14A1.85,1.85,0,0,1,34,47.84v.32A1.85,1.85,0,0,1,32.14,50Z"/><path class="cls-5" d="M24.34,58H19.66a2,2,0,1,1,0-4h4.68a2,2,0,1,1,0,4Z"/></svg>