<svg id="图层_1" data-name="图层 1" xmlns="http://www.w3.org/2000/svg" viewBox="0 0 64 64"><defs><style>.cls-1{opacity:0.95;}.cls-2,.cls-3{fill:#fff;}.cls-3{opacity:0.7;}</style></defs><title>213-热带风暴Tropical Storm</title><g class="cls-1"><path class="cls-2" d="M59,30.07c-8-16.91-23.24-17.41-26.39-17.32a6,6,0,0,0-.61,0,19.31,19.31,0,0,0-9.72,2.65A17.83,17.83,0,0,1,30,5a28.41,28.41,0,0,0-17.3,26.44c0,.19,0,.37,0,.56a19.14,19.14,0,0,0,2.63,9.68A17.77,17.77,0,0,1,5,33.91c8,16.93,23.23,17.43,26.38,17.34.21,0,.41,0,.62,0A19.11,19.11,0,0,0,43.17,47.7,16.7,16.7,0,0,1,35.88,59,26.63,26.63,0,0,0,51.23,33.93l0,.06A19.19,19.19,0,0,0,48.65,22.3,17.79,17.79,0,0,1,59,30.07ZM32,47A15,15,0,1,1,47,32,15,15,0,0,1,32,47Z"/></g><path class="cls-2" d="M32,21A11,11,0,1,0,43,32,11,11,0,0,0,32,21Zm0,18h0a7,7,0,1,1,7-7A7,7,0,0,1,32,39Z"/><path class="cls-3" d="M32,36a4,4,0,0,1,0-8h0a4,4,0,0,1,0,8Z"/></svg>