<svg id="图层_1" data-name="图层 1" xmlns="http://www.w3.org/2000/svg" viewBox="0 0 64 64"><defs><style>.cls-1{fill:#ffc819;}.cls-2{fill:#fff;}.cls-3{fill:#3dd0ff;}</style></defs><title>300-阵雨-Shower Rain</title><g id="天气"><path id="路径" class="cls-1" d="M4,17.5A13.5,13.5,0,1,0,17.5,4,13.49,13.49,0,0,0,4,17.5Z"/><path id="路径-2" data-name="路径" class="cls-2" d="M18,42a8.68,8.68,0,1,1,0-17.35h0c0-.16,0-.32,0-.48A14.41,14.41,0,0,1,32.61,10,14.72,14.72,0,0,1,45.5,17.44,12.83,12.83,0,0,1,60,29.66,12.55,12.55,0,0,1,47.25,42Z"/></g><path class="cls-3" d="M25.83,60a1.61,1.61,0,0,1-.79-.21,1.37,1.37,0,0,1-.49-1.94l8.63-13.18a1.56,1.56,0,0,1,2.06-.46,1.36,1.36,0,0,1,.49,1.94L27.11,59.33A1.54,1.54,0,0,1,25.83,60Z"/><path class="cls-3" d="M18.5,54.49a1.51,1.51,0,0,1-.79-.21,1.37,1.37,0,0,1-.49-1.94l5-7.67a1.57,1.57,0,0,1,2.07-.46,1.37,1.37,0,0,1,.49,1.94l-5,7.67A1.54,1.54,0,0,1,18.5,54.49Z"/><path class="cls-3" d="M39.49,54.49a1.45,1.45,0,0,1-.78-.21,1.36,1.36,0,0,1-.5-1.94l5-7.67a1.57,1.57,0,0,1,2.07-.46,1.37,1.37,0,0,1,.49,1.94l-5,7.67A1.54,1.54,0,0,1,39.49,54.49Z"/></svg>