<svg id="图层_1" data-name="图层 1" xmlns="http://www.w3.org/2000/svg" viewBox="0 0 64 64"><defs><style>.cls-1{fill:#3dd0ff;}.cls-2{fill:#ffc819;}.cls-3{fill:#fff;}</style></defs><title>301-强阵雨-Heavy Shower Rain</title><path class="cls-1" d="M9.5,55a1.48,1.48,0,0,1-.8-.23,1.5,1.5,0,0,1-.47-2.07l5-7.95a1.5,1.5,0,0,1,2.54,1.6l-5,8A1.51,1.51,0,0,1,9.5,55Z"/><path class="cls-1" d="M27.49,55a1.48,1.48,0,0,1-.8-.23,1.5,1.5,0,0,1-.47-2.07l5-7.95a1.5,1.5,0,1,1,2.54,1.6l-5,8A1.51,1.51,0,0,1,27.49,55Z"/><path class="cls-1" d="M33.29,60a1.54,1.54,0,0,1-.8-.23A1.5,1.5,0,0,1,32,57.7l8.21-13a1.5,1.5,0,0,1,2.54,1.6l-8.21,13A1.51,1.51,0,0,1,33.29,60Z"/><path class="cls-1" d="M15.29,60a1.54,1.54,0,0,1-.8-.23A1.5,1.5,0,0,1,14,57.7l8.21-13a1.5,1.5,0,0,1,2.54,1.6l-8.21,13A1.51,1.51,0,0,1,15.29,60Z"/><path class="cls-1" d="M45.49,55a1.48,1.48,0,0,1-.8-.23,1.5,1.5,0,0,1-.47-2.07l5-7.95a1.5,1.5,0,0,1,2.54,1.6l-5,8A1.51,1.51,0,0,1,45.49,55Z"/><g id="天气"><path id="路径" class="cls-2" d="M4,17.5A13.5,13.5,0,1,0,17.5,4,13.49,13.49,0,0,0,4,17.5Z"/><path id="路径-2" data-name="路径" class="cls-3" d="M18,42a8.68,8.68,0,1,1,0-17.35h0c0-.16,0-.32,0-.48A14.41,14.41,0,0,1,32.61,10,14.72,14.72,0,0,1,45.5,17.44,12.83,12.83,0,0,1,60,29.66,12.55,12.55,0,0,1,47.25,42Z"/></g></svg>