<svg id="图层_1" data-name="图层 1" xmlns="http://www.w3.org/2000/svg" viewBox="0 0 64 64"><defs><style>.cls-1{fill:#fff;}.cls-2{fill:#ffc819;}.cls-3{fill:#3dd0ff;}</style></defs><title>303-强雷阵雨-Heavy Thunderstorm</title><g id="锁屏title_深" data-name="锁屏title/深"><g id="锁屏title"><g id="编组-2"><g id="天气图标"><g id="天气_样式1" data-name="天气/样式1"><g id="天气"><path id="路径" class="cls-1" d="M13.84,37C8.41,37,4,33,4,28.05s4.41-8.94,9.84-8.94h0c0-.17,0-.33,0-.5C13.84,10.54,21,4,29.92,4a16.37,16.37,0,0,1,14.16,7.67A15.11,15.11,0,0,1,46,11.55c7.73,0,14,5.7,14,12.73S53.73,37,46,37Z"/></g></g></g></g></g></g><path class="cls-2" d="M28.41,58,41,41.59v0h0L30.64,39l3.7-12.87a0,0,0,0,0,0,0L34.93,24l-1.32,1.76a0,0,0,0,0,0,0L21,42.19h0a0,0,0,0,0,0,0l10.34,2.59-3.7,12.88L26.87,60"/><path class="cls-3" d="M5.48,52a1.51,1.51,0,0,1-.65-.15,1.42,1.42,0,0,1-.68-1.92l4-8.12a1.48,1.48,0,0,1,2-.66,1.42,1.42,0,0,1,.68,1.92l-4,8.12A1.47,1.47,0,0,1,5.48,52Z"/><path class="cls-3" d="M10.54,58a1.64,1.64,0,0,1-.68-.15,1.5,1.5,0,0,1-.7-2l6.92-14a1.56,1.56,0,0,1,2.06-.7,1.5,1.5,0,0,1,.7,2l-6.92,14A1.52,1.52,0,0,1,10.54,58Z"/><path class="cls-3" d="M41.48,52a1.51,1.51,0,0,1-.65-.15,1.42,1.42,0,0,1-.68-1.92l4.05-8.12a1.48,1.48,0,0,1,2-.66,1.42,1.42,0,0,1,.68,1.92L42.8,51.19A1.47,1.47,0,0,1,41.48,52Z"/><path class="cls-3" d="M46.54,58a1.64,1.64,0,0,1-.68-.15,1.5,1.5,0,0,1-.7-2l6.92-14a1.56,1.56,0,0,1,2.06-.7,1.5,1.5,0,0,1,.7,2l-6.92,14A1.52,1.52,0,0,1,46.54,58Z"/></svg>