<svg id="图层_1" data-name="图层 1" xmlns="http://www.w3.org/2000/svg" viewBox="0 0 64 64"><defs><style>.cls-1{fill:#fff;}.cls-2{fill:#ffc819;}.cls-3{fill:#3dd0ff;}</style></defs><title>304-雷阵雨伴有冰雹-hailThundershower with hail</title><g id="锁屏title_深" data-name="锁屏title/深"><g id="锁屏title"><g id="编组-2"><g id="天气图标"><g id="天气_样式1" data-name="天气/样式1"><g id="天气"><path id="路径" class="cls-1" d="M13.84,37C8.41,37,4,33,4,28.05s4.41-8.94,9.84-8.94h0c0-.17,0-.33,0-.5C13.84,10.54,21,4,29.92,4a16.37,16.37,0,0,1,14.16,7.67A15.11,15.11,0,0,1,46,11.55c7.73,0,14,5.7,14,12.73S53.73,37,46,37Z"/></g></g></g></g></g></g><path class="cls-2" d="M28.41,58,41,41.59v0h0L30.64,39l3.7-12.87a0,0,0,0,0,0,0L34.93,24l-1.32,1.76a0,0,0,0,0,0,0L21,42.19h0a0,0,0,0,0,0,0l10.34,2.59-3.7,12.88L26.87,60"/><path class="cls-3" d="M9.5,55a1.5,1.5,0,0,1-.81-.24,1.54,1.54,0,0,1-.45-2.11l7-10.95a1.49,1.49,0,0,1,2.07-.46,1.54,1.54,0,0,1,.45,2.11l-7,10.95A1.47,1.47,0,0,1,9.5,55Z"/><circle class="cls-3" cx="48" cy="43" r="3"/><circle class="cls-3" cx="43" cy="53" r="3"/></svg>