<svg id="图层_1" data-name="图层 1" xmlns="http://www.w3.org/2000/svg" viewBox="0 0 64 64"><defs><style>.cls-1{fill:#fff;}.cls-2{fill:#3dd0ff;}</style></defs><title>305-小雨-Light Rain</title><path id="路径" class="cls-1" d="M13.84,42A9.67,9.67,0,0,1,4,32.51,9.67,9.67,0,0,1,13.84,23h0c0-.17,0-.35,0-.52C13.84,13.94,21,7,29.92,7a16.17,16.17,0,0,1,14.16,8.14A15.1,15.1,0,0,1,46,15a13.76,13.76,0,0,1,14,13.5A13.75,13.75,0,0,1,46,42Z"/><path class="cls-2" d="M33.41,57a1.33,1.33,0,0,1-.74-.22,1.56,1.56,0,0,1-.46-2.06l5.19-9a1.35,1.35,0,0,1,1.93-.5,1.57,1.57,0,0,1,.46,2.07l-5.19,9A1.37,1.37,0,0,1,33.41,57Z"/><path class="cls-2" d="M18.41,57a1.33,1.33,0,0,1-.74-.22,1.56,1.56,0,0,1-.46-2.06l5.19-9a1.35,1.35,0,0,1,1.93-.5,1.57,1.57,0,0,1,.46,2.07l-5.19,9A1.37,1.37,0,0,1,18.41,57Z"/></svg>