<svg id="图层_1" data-name="图层 1" xmlns="http://www.w3.org/2000/svg" viewBox="0 0 64 64"><defs><style>.cls-1{fill:#fff;}.cls-2{fill:#3dd0ff;}</style></defs><title>306-中雨-Moderate Rain</title><path id="路径" class="cls-1" d="M13.84,40A9.67,9.67,0,0,1,4,30.51,9.67,9.67,0,0,1,13.84,21h0c0-.17,0-.35,0-.52C13.84,11.94,21,5,29.92,5a16.17,16.17,0,0,1,14.16,8.14A15.1,15.1,0,0,1,46,13a13.76,13.76,0,0,1,14,13.5A13.75,13.75,0,0,1,46,40Z"/><path class="cls-2" d="M24.55,60a1.57,1.57,0,0,1-.81-.22,1.48,1.48,0,0,1-.51-2.07l8.9-14a1.59,1.59,0,0,1,2.13-.49,1.48,1.48,0,0,1,.51,2.07l-8.9,14A1.57,1.57,0,0,1,24.55,60Z"/><path class="cls-2" d="M17.5,54a1.52,1.52,0,0,1-.79-.22,1.47,1.47,0,0,1-.49-2l5-8a1.5,1.5,0,0,1,2.06-.49,1.48,1.48,0,0,1,.49,2l-5,8A1.48,1.48,0,0,1,17.5,54Z"/><path class="cls-2" d="M38.49,54a1.52,1.52,0,0,1-.79-.22,1.47,1.47,0,0,1-.49-2l5-8a1.5,1.5,0,0,1,2.06-.49,1.48,1.48,0,0,1,.49,2l-5,8A1.48,1.48,0,0,1,38.49,54Z"/></svg>