<svg id="图层_1" data-name="图层 1" xmlns="http://www.w3.org/2000/svg" viewBox="0 0 64 64"><defs><style>.cls-1{fill:#fff;}.cls-2{fill:#3dd0ff;}</style></defs><title>308-极端降雨-Extreme Rain</title><path id="路径" class="cls-1" d="M15.84,39C10.41,39,6,35,6,30.05s4.41-8.94,9.84-8.94h0c0-.17,0-.33,0-.5C15.84,12.54,23,6,31.92,6a16.37,16.37,0,0,1,14.16,7.67A15.11,15.11,0,0,1,48,13.55c7.73,0,14,5.7,14,12.73S55.73,39,48,39Z"/><path class="cls-2" d="M50,44.57l-3.25,5.81a1.21,1.21,0,0,1-2.11-1.2l3.25-5.81A1.21,1.21,0,0,1,50,44.57Z"/><path class="cls-2" d="M39.72,44.57c-1.09,1.94-2.17,3.88-3.26,5.81a1.22,1.22,0,0,1-2.11-1.2c1.09-1.94,2.17-3.88,3.26-5.81A1.21,1.21,0,0,1,39.72,44.57Z"/><path class="cls-2" d="M27.92,44.57l-3.25,5.81a1.21,1.21,0,0,1-2.11-1.2l3.25-5.81A1.21,1.21,0,0,1,27.92,44.57Z"/><path class="cls-2" d="M16.55,44.57,13.3,50.38a1.21,1.21,0,0,1-2.11-1.2l3.25-5.81A1.21,1.21,0,0,1,16.55,44.57Z"/><path class="cls-2" d="M41.42,51.6l-3.25,5.81a1.21,1.21,0,0,1-2.11-1.2l3.25-5.82A1.22,1.22,0,0,1,41.42,51.6Z"/><path class="cls-2" d="M53.33,51.6l-3.25,5.81A1.21,1.21,0,0,1,48,56.21l3.25-5.82A1.22,1.22,0,0,1,53.33,51.6Z"/><path class="cls-2" d="M7.52,51.6,4.27,57.41a1.21,1.21,0,0,1-2.11-1.2l3.26-5.82A1.21,1.21,0,0,1,7.52,51.6Z"/><path class="cls-2" d="M6.1,46.61A1.22,1.22,0,0,1,4,45.4l3.26-5.81a1.22,1.22,0,0,1,2.11,1.2Z"/><path class="cls-2" d="M59.84,40.79l-3.26,5.82a1.21,1.21,0,0,1-2.1-1.21l3.25-5.81A1.21,1.21,0,0,1,59.84,40.79Z"/><path class="cls-2" d="M30.7,51.43c-1.09,1.94-2.17,3.88-3.26,5.81A1.22,1.22,0,0,1,25.33,56c1.09-1.94,2.17-3.88,3.26-5.81A1.22,1.22,0,0,1,30.7,51.43Z"/><path class="cls-2" d="M19.28,51c-1.09,1.94-2.17,3.88-3.26,5.81a1.22,1.22,0,0,1-2.11-1.2c1.09-1.94,2.17-3.88,3.26-5.81A1.22,1.22,0,0,1,19.28,51Z"/></svg>