<svg id="图层_1" data-name="图层 1" xmlns="http://www.w3.org/2000/svg" viewBox="0 0 64 64"><defs><style>.cls-1{fill:#fff;}.cls-2{fill:#3dd0ff;}</style></defs><title>309-毛毛雨细雨-Drizzle Rain</title><path id="路径" class="cls-1" d="M13.84,40A9.67,9.67,0,0,1,4,30.51,9.67,9.67,0,0,1,13.84,21h0c0-.17,0-.35,0-.52C13.84,11.94,21,5,29.92,5a16.17,16.17,0,0,1,14.16,8.14A15.1,15.1,0,0,1,46,13a13.76,13.76,0,0,1,14,13.5A13.75,13.75,0,0,1,46,40Z"/><path class="cls-2" d="M23.52,58a.64.64,0,0,1-.27-.07.49.49,0,0,1-.17-.69l9-14a.53.53,0,0,1,.71-.17.49.49,0,0,1,.17.69l-9,14A.51.51,0,0,1,23.52,58Z"/><path class="cls-2" d="M16.5,52a.48.48,0,0,1-.26-.07.49.49,0,0,1-.17-.68l5-8a.51.51,0,0,1,.69-.16.49.49,0,0,1,.17.68l-5,8A.51.51,0,0,1,16.5,52Z"/><path class="cls-2" d="M37.49,52a.48.48,0,0,1-.26-.07.49.49,0,0,1-.17-.68l5-8a.51.51,0,0,1,.69-.16.49.49,0,0,1,.17.68l-5,8A.51.51,0,0,1,37.49,52Z"/></svg>