<svg id="图层_1" data-name="图层 1" xmlns="http://www.w3.org/2000/svg" viewBox="0 0 64 64"><defs><style>.cls-1{fill:#3dd0ff;}</style></defs><title>311-大暴雨-Heavy Storm</title><path class="cls-1" d="M56,40.29a3.06,3.06,0,0,1-3.05-3h0c0-1.69,3.05-5.68,3.05-5.68s3,4,3,5.68a3,3,0,0,1-3,3Zm0-15.71a3.06,3.06,0,0,1-3.05-3h0c0-1.69,3.05-5.68,3.05-5.68s3,4,3,5.68a3,3,0,0,1-3,3ZM48.11,48.15a3.06,3.06,0,0,1-3-3.06h0c0-1.69,3-5.67,3-5.67s3,4,3,5.67A3.05,3.05,0,0,1,48.11,48.15Zm0-15.71a3.06,3.06,0,0,1-3-3.06h0c0-1.69,3-5.67,3-5.67s3,4,3,5.67a3.05,3.05,0,0,1-3,3.06Zm0-15.71a3.06,3.06,0,0,1-3-3.06h0c0-1.68,3-5.67,3-5.67s3,4,3,5.67a3.05,3.05,0,0,1-3,3.06ZM40.27,56a3,3,0,0,1-3-3h0c0-1.69,3-5.68,3-5.68s3,4,3,5.68A3,3,0,0,1,40.27,56Zm0-15.71a3,3,0,0,1-3-3h0c0-1.69,3-5.68,3-5.68s3,4,3,5.68a3,3,0,0,1-3,3Zm0-15.71a3,3,0,0,1-3-3h0c0-1.69,3-5.68,3-5.68s3,4,3,5.68a3,3,0,0,1-3,3ZM32.44,48.15a3.05,3.05,0,0,1-3-3.06h0c0-1.69,3-5.67,3-5.67s3,4,3,5.67a3,3,0,0,1-3,3.06Zm0-15.71a3.05,3.05,0,0,1-3-3.06h0c0-1.69,3-5.67,3-5.67s3,4,3,5.67a3,3,0,0,1-3,3.06Zm0-15.71a3.05,3.05,0,0,1-3-3.06h0c0-1.68,3-5.67,3-5.67s3,4,3,5.67a3,3,0,0,1-3,3.06ZM23.73,56a3,3,0,0,1-3.05-3h0c0-1.69,3.05-5.68,3.05-5.68s3,4,3,5.68a3,3,0,0,1-3,3Zm0-15.71a3,3,0,0,1-3.05-3h0c0-1.69,3.05-5.68,3.05-5.68s3,4,3,5.68a3,3,0,0,1-3,3Zm0-15.71a3,3,0,0,1-3.05-3h0c0-1.69,3.05-5.68,3.05-5.68s3,4,3,5.68a3,3,0,0,1-3,3ZM15.89,48.15a3.05,3.05,0,0,1-3.05-3.06h0c0-1.69,3.05-5.67,3.05-5.67s3.05,4,3.05,5.67a3.06,3.06,0,0,1-3.05,3.06Zm0-15.71a3.05,3.05,0,0,1-3.05-3.06h0c0-1.69,3.05-5.67,3.05-5.67s3.05,4,3.05,5.67a3.06,3.06,0,0,1-3.05,3.06Zm0-15.71a3.05,3.05,0,0,1-3.05-3.06C12.84,12,15.89,8,15.89,8s3.05,4,3.05,5.67A3.06,3.06,0,0,1,15.89,16.73ZM8.05,56A3,3,0,0,1,5,53H5c0-1.69,3.05-5.68,3.05-5.68s3,4,3,5.68a3.06,3.06,0,0,1-3,3Zm0-15.71a3,3,0,0,1-3.05-3H5c0-1.69,3.05-5.68,3.05-5.68s3,4,3,5.68a3.06,3.06,0,0,1-3,3Zm0-15.71a3,3,0,0,1-3.05-3H5c0-1.69,3.05-5.68,3.05-5.68s3,4,3,5.68a3.06,3.06,0,0,1-3,3ZM59,53a3,3,0,1,1-6.1,0c0-1.69,3.05-5.68,3.05-5.68S59,51.26,59,53Z"/></svg>