<svg id="图层_1" data-name="图层 1" xmlns="http://www.w3.org/2000/svg" viewBox="0 0 64 64"><defs><style>.cls-1{fill:#fff;}.cls-2{opacity:0.9;}.cls-3{fill:#3dd0ff;}.cls-4{fill:#3ec4ee;}</style></defs><title>313-冻雨-Freezing Rain</title><path id="路径" class="cls-1" d="M13.84,40A9.67,9.67,0,0,1,4,30.51,9.67,9.67,0,0,1,13.84,21h0c0-.17,0-.35,0-.52C13.84,11.94,21,5,29.92,5a16.17,16.17,0,0,1,14.16,8.14A15.1,15.1,0,0,1,46,13a13.76,13.76,0,0,1,14,13.5A13.75,13.75,0,0,1,46,40Z"/><g class="cls-2"><path class="cls-3" d="M14.42,52a1.44,1.44,0,0,1-1.25-2.15l3.15-6.08a1.41,1.41,0,0,1,1.93-.6,1.49,1.49,0,0,1,.58,2l-3.15,6.08A1.43,1.43,0,0,1,14.42,52Z"/></g><g class="cls-2"><path class="cls-3" d="M41.42,52a1.44,1.44,0,0,1-1.25-2.15l3.15-6.08a1.41,1.41,0,0,1,1.93-.6,1.49,1.49,0,0,1,.58,2l-3.15,6.08A1.43,1.43,0,0,1,41.42,52Z"/></g><path class="cls-4" d="M31.57,43.12,32.46,50l-5.11,4.67-.89-6.84Z"/></svg>