<svg id="图层_1" data-name="图层 1" xmlns="http://www.w3.org/2000/svg" viewBox="0 0 64 64"><defs><style>.cls-1{fill:#fff;}.cls-2{fill:#3dd0ff;}</style></defs><title>315-中到大雨-Moderate to heavy rain</title><path id="路径" class="cls-1" d="M13.84,40A9.67,9.67,0,0,1,4,30.51,9.67,9.67,0,0,1,13.84,21h0c0-.17,0-.35,0-.52C13.84,11.94,21,5,29.92,5a16.17,16.17,0,0,1,14.16,8.14A15.1,15.1,0,0,1,46,13a13.76,13.76,0,0,1,14,13.5A13.75,13.75,0,0,1,46,40Z"/><path class="cls-2" d="M8.5,55a1.5,1.5,0,0,1-.76-.21,1.61,1.61,0,0,1-.54-2.13l5-8.89a1.48,1.48,0,0,1,2-.56,1.59,1.59,0,0,1,.53,2.13l-5,8.89A1.5,1.5,0,0,1,8.5,55Z"/><path class="cls-2" d="M26.5,55a1.5,1.5,0,0,1-.76-.21,1.59,1.59,0,0,1-.53-2.13l5-8.89a1.48,1.48,0,0,1,2-.56,1.59,1.59,0,0,1,.53,2.13l-5,8.89A1.5,1.5,0,0,1,26.5,55Z"/><path class="cls-2" d="M32.47,60a1.43,1.43,0,0,1-.74-.21,1.51,1.51,0,0,1-.53-2l8.06-14a1.45,1.45,0,0,1,2-.53,1.52,1.52,0,0,1,.53,2l-8.06,14A1.44,1.44,0,0,1,32.47,60Z"/><path class="cls-2" d="M14.47,60a1.43,1.43,0,0,1-.74-.21,1.51,1.51,0,0,1-.53-2l8.06-14a1.45,1.45,0,0,1,2-.53,1.52,1.52,0,0,1,.53,2l-8.06,14A1.44,1.44,0,0,1,14.47,60Z"/><path class="cls-2" d="M44.5,55a1.5,1.5,0,0,1-.76-.21,1.59,1.59,0,0,1-.53-2.13l5-8.89a1.48,1.48,0,0,1,2-.56,1.59,1.59,0,0,1,.53,2.13l-5,8.89A1.5,1.5,0,0,1,44.5,55Z"/></svg>