<svg id="图层_1" data-name="图层 1" xmlns="http://www.w3.org/2000/svg" viewBox="0 0 64 64"><defs><style>.cls-1{fill:#fff;}</style></defs><title>400-小雪-Light Snow</title><path id="路径" class="cls-1" d="M13.84,41A9.67,9.67,0,0,1,4,31.51,9.67,9.67,0,0,1,13.84,22h0c0-.17,0-.35,0-.52C13.84,12.94,21,6,29.92,6a16.17,16.17,0,0,1,14.16,8.14A15.1,15.1,0,0,1,46,14a13.76,13.76,0,0,1,14,13.5A13.75,13.75,0,0,1,46,41Z"/><path class="cls-1" d="M37.3,47.29H35.78l1-1a.71.71,0,0,0-1-1l-1.1,1.09V44.7a.7.7,0,1,0-1.39,0v1.7l-1.13-1.12a.71.71,0,1,0-1,1l1,1H30.7A.72.72,0,0,0,30,48a.7.7,0,0,0,.7.7h1.67l-1.24,1.25a.71.71,0,0,0,0,1,.7.7,0,0,0,.51.21.6.6,0,0,0,.49-.21l1.16-1.16V51.3a.7.7,0,1,0,1.39,0V49.81l1.13,1.13a.71.71,0,0,0,.52.21.6.6,0,0,0,.48-.21.71.71,0,0,0,0-1l-1.24-1.25H37.3A.72.72,0,0,0,38,48,.7.7,0,0,0,37.3,47.29Z"/><path class="cls-1" d="M27.47,54.47H26.38l.75-.75a.53.53,0,0,0-.76-.75l-.84.84V52.53a.53.53,0,0,0-1.06,0v1.28L23.63,53a.53.53,0,0,0-.76.75l.75.75H22.53a.53.53,0,0,0,0,1.06h1.28l-.94.94a.53.53,0,0,0,0,.75.61.61,0,0,0,.38.15.63.63,0,0,0,.38-.15l.84-.84v1.09a.53.53,0,0,0,1.06,0V56.38l.84.84a.61.61,0,0,0,.38.15.68.68,0,0,0,.38-.15.53.53,0,0,0,0-.75l-.94-.94h1.28A.53.53,0,0,0,28,55,.55.55,0,0,0,27.47,54.47Z"/></svg>