<svg id="图层_1" data-name="图层 1" xmlns="http://www.w3.org/2000/svg" viewBox="0 0 64 64"><defs><style>.cls-1{fill:#fff;}</style></defs><title>401-中雪-Moderate Snow</title><path id="路径" class="cls-1" d="M13.84,38A9.67,9.67,0,0,1,4,28.51,9.67,9.67,0,0,1,13.84,19h0c0-.17,0-.35,0-.52C13.84,9.94,21,3,29.92,3a16.17,16.17,0,0,1,14.16,8.14A15.1,15.1,0,0,1,46,11a13.76,13.76,0,0,1,14,13.5A13.75,13.75,0,0,1,46,38Z"/><path class="cls-1" d="M44.3,45.29H42.78l1-1a.71.71,0,0,0-1-1l-1.1,1.09V42.7a.7.7,0,1,0-1.39,0v1.7l-1.13-1.12a.71.71,0,0,0-1,1l1,1H37.7A.72.72,0,0,0,37,46a.7.7,0,0,0,.7.7h1.67l-1.24,1.25a.71.71,0,0,0,0,1,.7.7,0,0,0,.51.21.6.6,0,0,0,.49-.21l1.16-1.16V49.3a.7.7,0,1,0,1.39,0V47.81l1.13,1.13a.71.71,0,0,0,.52.21.6.6,0,0,0,.48-.21.71.71,0,0,0,0-1l-1.24-1.25H44.3A.72.72,0,0,0,45,46,.7.7,0,0,0,44.3,45.29Z"/><path class="cls-1" d="M32.21,54.7H30.5l1.13-1.13a.8.8,0,1,0-1.13-1.13l-1.23,1.23V51.79a.8.8,0,0,0-.79-.79.79.79,0,0,0-.78.79V53.7l-1.27-1.26a.8.8,0,1,0-1.13,1.13l1.13,1.13H24.79a.82.82,0,0,0-.79.78.8.8,0,0,0,.79.79h1.88l-1.4,1.4a.8.8,0,0,0,0,1.13.79.79,0,0,0,.58.24.7.7,0,0,0,.55-.24l1.3-1.3v1.71a.79.79,0,1,0,1.57,0V57.54l1.27,1.26a.79.79,0,0,0,.58.24.7.7,0,0,0,.55-.24.82.82,0,0,0,0-1.13l-1.41-1.4h1.95a.83.83,0,0,0,.79-.79A.79.79,0,0,0,32.21,54.7Z"/><path class="cls-1" d="M23.47,43.47H22.38l.75-.75a.53.53,0,0,0-.76-.75l-.84.84V41.53a.53.53,0,0,0-1.06,0v1.28L19.63,42a.53.53,0,0,0-.76.75l.75.75H18.53a.53.53,0,0,0,0,1.06h1.28l-.94.94a.53.53,0,0,0,0,.75.62.62,0,0,0,.38.16.64.64,0,0,0,.38-.16l.84-.84v1.09a.53.53,0,0,0,1.06,0V45.38l.84.84a.62.62,0,0,0,.38.16.7.7,0,0,0,.38-.16.53.53,0,0,0,0-.75l-.94-.94h1.28A.53.53,0,0,0,24,44,.55.55,0,0,0,23.47,43.47Z"/></svg>