<svg id="图层_1" data-name="图层 1" xmlns="http://www.w3.org/2000/svg" viewBox="0 0 64 64"><defs><style>.cls-1{fill:#fff;}</style></defs><title>402-大雪-Heavy Snow</title><path id="路径" class="cls-1" d="M13.84,38A9.67,9.67,0,0,1,4,28.51,9.67,9.67,0,0,1,13.84,19h0c0-.17,0-.35,0-.52C13.84,9.94,21,3,29.92,3a16.17,16.17,0,0,1,14.16,8.14A15.1,15.1,0,0,1,46,11a13.76,13.76,0,0,1,14,13.5A13.75,13.75,0,0,1,46,38Z"/><path class="cls-1" d="M26.21,54.7H24.5l1.13-1.13a.8.8,0,1,0-1.13-1.13l-1.23,1.23V51.79a.8.8,0,0,0-.79-.79.79.79,0,0,0-.78.79V53.7l-1.27-1.26a.8.8,0,1,0-1.13,1.13l1.13,1.13H18.79a.82.82,0,0,0-.79.78.8.8,0,0,0,.79.79h1.88l-1.4,1.4a.8.8,0,0,0,0,1.13.79.79,0,0,0,.58.24.7.7,0,0,0,.55-.24l1.3-1.3v1.71a.79.79,0,1,0,1.57,0V57.54l1.27,1.26a.79.79,0,0,0,.58.24.7.7,0,0,0,.55-.24.82.82,0,0,0,0-1.13l-1.41-1.4h1.95a.83.83,0,0,0,.79-.79A.79.79,0,0,0,26.21,54.7Z"/><path class="cls-1" d="M42.21,54.7H40.5l1.13-1.13a.8.8,0,0,0-1.13-1.13l-1.23,1.23V51.79a.8.8,0,0,0-.79-.79.79.79,0,0,0-.78.79V53.7l-1.27-1.26a.8.8,0,1,0-1.13,1.13l1.13,1.13H34.79a.82.82,0,0,0-.79.78.8.8,0,0,0,.79.79h1.88l-1.4,1.4a.8.8,0,0,0,0,1.13.79.79,0,0,0,.58.24.7.7,0,0,0,.55-.24l1.3-1.3v1.71a.79.79,0,1,0,1.57,0V57.54l1.27,1.26a.79.79,0,0,0,.58.24.7.7,0,0,0,.55-.24.82.82,0,0,0,0-1.13l-1.41-1.4h2a.83.83,0,0,0,.79-.79A.79.79,0,0,0,42.21,54.7Z"/><path class="cls-1" d="M18.38,43.88H17.1L18,43a.62.62,0,0,0-.88-.88l-1,1V41.62a.62.62,0,0,0-1.24,0v1.49l-1-1A.62.62,0,0,0,13,43l.88.87H12.62a.62.62,0,0,0,0,1.24h1.49L13,46.21a.61.61,0,0,0,0,.88.67.67,0,0,0,.44.18.69.69,0,0,0,.44-.18l1-1v1.28a.62.62,0,0,0,1.24,0V46.1l1,1a.69.69,0,0,0,.44.18.76.76,0,0,0,.44-.18.61.61,0,0,0,0-.88l-1.09-1.09h1.49A.62.62,0,0,0,19,44.5.64.64,0,0,0,18.38,43.88Z"/><path class="cls-1" d="M33.38,43.88H32.1L33,43a.62.62,0,0,0-.88-.88l-1,1V41.62a.62.62,0,0,0-1.24,0v1.49l-1-1A.62.62,0,0,0,28,43l.88.87H27.62a.62.62,0,0,0,0,1.24h1.49L28,46.21a.61.61,0,0,0,0,.88.67.67,0,0,0,.44.18.69.69,0,0,0,.44-.18l1-1v1.28a.62.62,0,1,0,1.24,0V46.1l1,1a.69.69,0,0,0,.44.18.76.76,0,0,0,.44-.18.61.61,0,0,0,0-.88l-1.09-1.09h1.49A.62.62,0,0,0,34,44.5.64.64,0,0,0,33.38,43.88Z"/><path class="cls-1" d="M48.38,43.88H47.1L48,43a.62.62,0,0,0-.88-.88l-1,1V41.62a.62.62,0,0,0-1.24,0v1.49l-1-1A.62.62,0,0,0,43,43l.88.87H42.62a.62.62,0,0,0,0,1.24h1.49L43,46.21a.61.61,0,0,0,0,.88.67.67,0,0,0,.44.18.69.69,0,0,0,.44-.18l1-1v1.28a.62.62,0,0,0,1.24,0V46.1l1,1a.69.69,0,0,0,.44.18.76.76,0,0,0,.44-.18.61.61,0,0,0,0-.88l-1.09-1.09h1.49A.62.62,0,0,0,49,44.5.64.64,0,0,0,48.38,43.88Z"/></svg>