<svg id="图层_1" data-name="图层 1" xmlns="http://www.w3.org/2000/svg" viewBox="0 0 64 64"><defs><style>.cls-1{fill:#fff;}.cls-2{opacity:0.9;}.cls-3{fill:#3dd0ff;}</style></defs><title>404-雨夹雪-Sleet</title><path id="路径" class="cls-1" d="M13.84,43A9.67,9.67,0,0,1,4,33.51,9.67,9.67,0,0,1,13.84,24h0c0-.17,0-.35,0-.52C13.84,14.94,21,8,29.92,8a16.17,16.17,0,0,1,14.16,8.14A15.1,15.1,0,0,1,46,16a13.76,13.76,0,0,1,14,13.5A13.75,13.75,0,0,1,46,43Z"/><g class="cls-2"><path class="cls-3" d="M14.42,56a1.26,1.26,0,0,1-.67-.19,1.75,1.75,0,0,1-.59-2.2l3.16-6.75a1.34,1.34,0,0,1,1.92-.67,1.74,1.74,0,0,1,.59,2.2l-3.16,6.75A1.41,1.41,0,0,1,14.42,56Z"/></g><g class="cls-2"><path class="cls-3" d="M41.42,56a1.29,1.29,0,0,1-.67-.19,1.75,1.75,0,0,1-.58-2.2l3.15-6.75a1.35,1.35,0,0,1,1.93-.67,1.75,1.75,0,0,1,.58,2.2l-3.15,6.75A1.41,1.41,0,0,1,41.42,56Z"/></g><path class="cls-1" d="M33.21,49.7H31.5l1.13-1.13a.8.8,0,0,0-1.13-1.13l-1.23,1.23V46.79a.8.8,0,0,0-.79-.79.79.79,0,0,0-.78.79V48.7l-1.27-1.26a.8.8,0,1,0-1.13,1.13l1.13,1.13H25.79a.82.82,0,0,0-.79.78.8.8,0,0,0,.79.79h1.88l-1.4,1.4a.8.8,0,0,0,0,1.13.79.79,0,0,0,.58.24.7.7,0,0,0,.55-.24l1.3-1.3v1.71a.79.79,0,1,0,1.57,0V52.54l1.27,1.26a.79.79,0,0,0,.58.24.7.7,0,0,0,.55-.24.82.82,0,0,0,0-1.13l-1.41-1.4h1.95a.83.83,0,0,0,.79-.79A.79.79,0,0,0,33.21,49.7Z"/></svg>