<svg id="图层_1" data-name="图层 1" xmlns="http://www.w3.org/2000/svg" viewBox="0 0 64 64"><defs><style>.cls-1{fill:#4dd4ff;}.cls-2,.cls-3{fill:#fff;}.cls-2{opacity:0.8;}</style></defs><title>405-雨雪天气-Rain And Snow</title><path class="cls-1" d="M55,49.46a8.5,8.5,0,1,1-17,0C38,44.73,46.5,32,46.5,32S55,44.73,55,49.46Z"/><path class="cls-2" d="M11.79,55.33c-1.39,1.39-3,2-3.57,1.45h0c-.59-.58.06-2.18,1.45-3.57L54.21,8.67c1.39-1.39,3-2,3.57-1.45h0c.59.58-.06,2.18-1.45,3.57Z"/><path class="cls-3" d="M16,5a1.13,1.13,0,0,0-.8.32,1,1,0,0,0-.34.76v2.8L13.58,7.67a1.18,1.18,0,0,0-1.62,0,1.05,1.05,0,0,0,0,1.51l0,0L14.85,12v4.17L11.05,14,10,10.28a1.12,1.12,0,0,0-.8-.79,1.18,1.18,0,0,0-1.12.29,1,1,0,0,0-.28,1.06l.47,1.66L5.71,11.1a1.19,1.19,0,0,0-1.52.42A1.06,1.06,0,0,0,4.56,13l2.56,1.4-1.75.44a1.08,1.08,0,0,0-.81,1.31v0a1.15,1.15,0,0,0,1.4.77l4-1L13.72,18,9.91,20.09,6,19.08a1.15,1.15,0,0,0-1.35.78,1.09,1.09,0,0,0,.76,1.32l1.75.44L4.56,23A1.06,1.06,0,0,0,4,24.24a1.12,1.12,0,0,0,1.1.8,1.26,1.26,0,0,0,.57-.14l2.55-1.4-.47,1.66a1,1,0,0,0,.28,1.07,1.17,1.17,0,0,0,1.12.28,1.09,1.09,0,0,0,.8-.79L11.05,22l3.81-2.09v4.36L12,27a1,1,0,0,0-.24,1.18,1.16,1.16,0,0,0,1.52.58,1.24,1.24,0,0,0,.34-.22l1.28-1.22v2.62a1.14,1.14,0,0,0,2.28,0V27.3l1.27,1.22a1.21,1.21,0,0,0,1.62,0,1.05,1.05,0,0,0,0-1.51l0,0-2.89-2.74V19.88l4,2.18,1.06,3.75a1.09,1.09,0,0,0,.8.8,1.2,1.2,0,0,0,1.13-.28,1.06,1.06,0,0,0,.27-1.08l-.47-1.66,2.38,1.31a1.2,1.2,0,0,0,1.52-.42A1.05,1.05,0,0,0,27.42,23L25,21.71l1.75-.44a1.11,1.11,0,0,0,.8-.77,1,1,0,0,0-.29-1,1.17,1.17,0,0,0-1.1-.29l-3.95,1-4-2.18,4-2.18,3.94,1a1.14,1.14,0,0,0,1.4-.76,1.07,1.07,0,0,0-.78-1.32h0L25,14.29,27.42,13a1.06,1.06,0,0,0,0-1.88,1.2,1.2,0,0,0-1.15,0L23.9,12.41l.47-1.66a1.08,1.08,0,0,0-.82-1.28,1.14,1.14,0,0,0-1.38.72l-1.06,3.75-4,2.18V12L20,9.2a1,1,0,0,0,0-1.5l0,0a1.19,1.19,0,0,0-1.61,0L17.13,8.88V6.08a1,1,0,0,0-.33-.76A1.17,1.17,0,0,0,16,5"/></svg>