<svg id="图层_1" data-name="图层 1" xmlns="http://www.w3.org/2000/svg" viewBox="0 0 64 64"><defs><style>.cls-1{fill:#ffc819;}.cls-2{fill:#fff;}.cls-3{opacity:0.9;}.cls-4{fill:#3dd0ff;}</style></defs><title>406-阵雨夹雪-Shower Snow</title><g id="天气"><path id="路径" class="cls-1" d="M4,19.5A13.5,13.5,0,1,0,17.5,6,13.49,13.49,0,0,0,4,19.5Z"/><path id="路径-2" data-name="路径" class="cls-2" d="M18,44a8.68,8.68,0,1,1,0-17.35h0c0-.16,0-.32,0-.48A14.41,14.41,0,0,1,32.61,12,14.72,14.72,0,0,1,45.5,19.44,12.83,12.83,0,0,1,60,31.66,12.55,12.55,0,0,1,47.25,44Z"/></g><g class="cls-3"><path class="cls-4" d="M16.42,58a1.29,1.29,0,0,1-.67-.19,1.75,1.75,0,0,1-.58-2.2l3.15-6.75a1.35,1.35,0,0,1,1.93-.67,1.75,1.75,0,0,1,.58,2.2l-3.16,6.75A1.39,1.39,0,0,1,16.42,58Z"/></g><g class="cls-3"><path class="cls-4" d="M43.42,58a1.25,1.25,0,0,1-.66-.19,1.74,1.74,0,0,1-.59-2.2l3.16-6.75a1.34,1.34,0,0,1,1.92-.67,1.75,1.75,0,0,1,.59,2.2l-3.16,6.75A1.41,1.41,0,0,1,43.42,58Z"/></g><path class="cls-2" d="M35.22,51.7H33.51l1.13-1.13a.82.82,0,0,0,0-1.13.8.8,0,0,0-1.13,0l-1.24,1.23V48.79a.79.79,0,1,0-1.57,0V50.7l-1.27-1.26a.8.8,0,0,0-1.13,0,.82.82,0,0,0,0,1.13l1.13,1.13H27.79a.82.82,0,0,0-.79.78.8.8,0,0,0,.79.79h1.88l-1.4,1.4A.81.81,0,0,0,28.85,56a.69.69,0,0,0,.55-.24l1.3-1.3v1.71a.79.79,0,1,0,1.57,0V54.54l1.27,1.26a.81.81,0,0,0,.58.24.69.69,0,0,0,.55-.24.8.8,0,0,0,0-1.13l-1.4-1.4h1.95a.82.82,0,0,0,.78-.79A.79.79,0,0,0,35.22,51.7Z"/></svg>