<svg id="图层_1" data-name="图层 1" xmlns="http://www.w3.org/2000/svg" viewBox="0 0 64 64"><defs><style>.cls-1{fill:#fff;}.cls-2{fill:#ffc819;}</style></defs><title>407-阵雪-Snow Flurry</title><path class="cls-1" d="M46.3,46.29H44.78l1-1a.71.71,0,0,0-1-1l-1.1,1.09V43.7a.7.7,0,1,0-1.39,0v1.7l-1.13-1.12a.71.71,0,0,0-1,1l1,1H39.7A.72.72,0,0,0,39,47a.7.7,0,0,0,.7.7h1.67l-1.24,1.25a.71.71,0,0,0,0,1,.7.7,0,0,0,.51.21.6.6,0,0,0,.49-.21l1.16-1.16V50.3a.7.7,0,1,0,1.39,0V48.81l1.13,1.13a.71.71,0,0,0,.52.21.6.6,0,0,0,.48-.21.71.71,0,0,0,0-1l-1.24-1.25H46.3A.72.72,0,0,0,47,47,.7.7,0,0,0,46.3,46.29Z"/><path class="cls-1" d="M34.21,55.7H32.5l1.13-1.13a.8.8,0,0,0-1.13-1.13l-1.23,1.23V52.79a.8.8,0,0,0-.79-.79.79.79,0,0,0-.78.79V54.7l-1.27-1.26a.8.8,0,1,0-1.13,1.13l1.13,1.13H26.79a.82.82,0,0,0-.79.78.8.8,0,0,0,.79.79h1.88l-1.4,1.4a.8.8,0,0,0,0,1.13.79.79,0,0,0,.58.24.7.7,0,0,0,.55-.24l1.3-1.3v1.71a.79.79,0,1,0,1.57,0V58.54l1.27,1.26a.79.79,0,0,0,.58.24.7.7,0,0,0,.55-.24.82.82,0,0,0,0-1.13l-1.41-1.4h2a.83.83,0,0,0,.79-.79A.79.79,0,0,0,34.21,55.7Z"/><path class="cls-1" d="M24.47,45.47H23.38l.75-.75a.53.53,0,0,0-.76-.75l-.84.84V43.53a.53.53,0,0,0-1.06,0v1.28L20.63,44a.53.53,0,0,0-.76.75l.75.75H19.53a.53.53,0,0,0,0,1.06h1.28l-.94.94a.53.53,0,0,0,0,.75.61.61,0,0,0,.38.15.63.63,0,0,0,.38-.15l.84-.84v1.09a.53.53,0,0,0,1.06,0v-1.1l.84.85a.61.61,0,0,0,.38.15.68.68,0,0,0,.38-.15.53.53,0,0,0,0-.75l-.94-.94h1.28A.53.53,0,0,0,25,46,.55.55,0,0,0,24.47,45.47Z"/><g id="天气"><path id="路径" class="cls-2" d="M4,16.5A13.5,13.5,0,1,0,17.5,3,13.49,13.49,0,0,0,4,16.5Z"/><path id="路径-2" data-name="路径" class="cls-1" d="M18,41a8.68,8.68,0,1,1,0-17.35h0c0-.16,0-.32,0-.48A14.41,14.41,0,0,1,32.61,9,14.72,14.72,0,0,1,45.5,16.44,12.83,12.83,0,0,1,60,28.66,12.55,12.55,0,0,1,47.25,41Z"/></g></svg>