<svg id="图层_1" data-name="图层 1" xmlns="http://www.w3.org/2000/svg" viewBox="0 0 64 64"><defs><style>.cls-1{fill:#fff;}</style></defs><title>409-中到大雪-Moderate to heavy snow</title><path id="路径" class="cls-1" d="M13.84,38.5A9.67,9.67,0,0,1,4,29a9.67,9.67,0,0,1,9.84-9.49h0c0-.17,0-.35,0-.52,0-8.56,7.2-15.5,16.08-15.5a16.17,16.17,0,0,1,14.16,8.14A15.1,15.1,0,0,1,46,11.51,13.76,13.76,0,0,1,60,25,13.75,13.75,0,0,1,46,38.5Z"/><path class="cls-1" d="M26.21,55.2H24.5l1.13-1.13a.8.8,0,1,0-1.13-1.13l-1.23,1.23V52.29a.8.8,0,0,0-.79-.79.79.79,0,0,0-.78.79V54.2l-1.27-1.26a.8.8,0,1,0-1.13,1.13l1.13,1.13H18.79A.82.82,0,0,0,18,56a.8.8,0,0,0,.79.79h1.88l-1.4,1.4a.8.8,0,0,0,0,1.13.79.79,0,0,0,.58.24.7.7,0,0,0,.55-.24L21.7,58v1.71a.79.79,0,1,0,1.57,0V58l1.27,1.26a.79.79,0,0,0,.58.24.7.7,0,0,0,.55-.24.82.82,0,0,0,0-1.13l-1.41-1.4h1.95A.83.83,0,0,0,27,56,.79.79,0,0,0,26.21,55.2Z"/><path class="cls-1" d="M42.21,55.2H40.5l1.13-1.13a.8.8,0,0,0-1.13-1.13l-1.23,1.23V52.29a.8.8,0,0,0-.79-.79.79.79,0,0,0-.78.79V54.2l-1.27-1.26a.8.8,0,1,0-1.13,1.13l1.13,1.13H34.79A.82.82,0,0,0,34,56a.8.8,0,0,0,.79.79h1.88l-1.4,1.4a.8.8,0,0,0,0,1.13.79.79,0,0,0,.58.24.7.7,0,0,0,.55-.24L37.7,58v1.71a.79.79,0,1,0,1.57,0V58l1.27,1.26a.79.79,0,0,0,.58.24.7.7,0,0,0,.55-.24.82.82,0,0,0,0-1.13l-1.41-1.4h2A.83.83,0,0,0,43,56,.79.79,0,0,0,42.21,55.2Z"/><path class="cls-1" d="M18.38,44.38H17.1l.88-.87a.61.61,0,0,0,0-.88.59.59,0,0,0-.88,0l-1,1V42.12a.62.62,0,1,0-1.24,0v1.49l-1-1a.59.59,0,0,0-.88,0,.61.61,0,0,0,0,.88l.88.87H12.62a.62.62,0,0,0,0,1.24h1.49L13,46.71a.61.61,0,0,0,0,.88.67.67,0,0,0,.44.18.69.69,0,0,0,.44-.18l1-1v1.28a.62.62,0,1,0,1.24,0V46.6l1,1a.69.69,0,0,0,.44.18.76.76,0,0,0,.44-.18.61.61,0,0,0,0-.88l-1.09-1.09h1.49A.62.62,0,0,0,19,45,.64.64,0,0,0,18.38,44.38Z"/><path class="cls-1" d="M33.38,44.38H32.1l.88-.87a.61.61,0,0,0,0-.88.59.59,0,0,0-.88,0l-1,1V42.12a.62.62,0,0,0-1.24,0v1.49l-1-1a.59.59,0,0,0-.88,0,.61.61,0,0,0,0,.88l.88.87H27.62a.62.62,0,0,0,0,1.24h1.49L28,46.71a.61.61,0,0,0,0,.88.67.67,0,0,0,.44.18.69.69,0,0,0,.44-.18l1-1v1.28a.62.62,0,1,0,1.24,0V46.6l1,1a.69.69,0,0,0,.44.18.76.76,0,0,0,.44-.18.61.61,0,0,0,0-.88l-1.09-1.09h1.49A.62.62,0,0,0,34,45,.64.64,0,0,0,33.38,44.38Z"/><path class="cls-1" d="M48.38,44.38H47.1l.88-.87a.61.61,0,0,0,0-.88.59.59,0,0,0-.88,0l-1,1V42.12a.62.62,0,0,0-1.24,0v1.49l-1-1a.59.59,0,0,0-.88,0,.61.61,0,0,0,0,.88l.88.87H42.62a.62.62,0,0,0,0,1.24h1.49L43,46.71a.61.61,0,0,0,0,.88.67.67,0,0,0,.44.18.69.69,0,0,0,.44-.18l1-1v1.28a.62.62,0,0,0,1.24,0V46.6l1,1a.69.69,0,0,0,.44.18.76.76,0,0,0,.44-.18.61.61,0,0,0,0-.88l-1.09-1.09h1.49A.62.62,0,0,0,49,45,.64.64,0,0,0,48.38,44.38Z"/></svg>