<svg id="图层_1" data-name="图层 1" xmlns="http://www.w3.org/2000/svg" viewBox="0 0 64 64"><defs><style>.cls-1{fill:#fff;}</style></defs><title>410-大到暴雪-Heavy snow to snowstorm</title><path class="cls-1" d="M37,8.93H34.67l1.5-1.51a1.05,1.05,0,0,0,0-1.5,1.07,1.07,0,0,0-1.5,0L33,7.56V5.05a1,1,0,0,0-2.1,0V7.6L29.24,5.92a1.08,1.08,0,0,0-1.51,0,1.07,1.07,0,0,0,0,1.5l1.51,1.51H27.05A1.09,1.09,0,0,0,26,10a1.07,1.07,0,0,0,1.05,1h2.51L27.69,12.9a1.07,1.07,0,0,0,.77,1.82.89.89,0,0,0,.73-.32l1.74-1.73V15A1.05,1.05,0,0,0,33,15V12.71l1.68,1.69a1.08,1.08,0,0,0,.78.32.9.9,0,0,0,.73-.32,1.07,1.07,0,0,0,0-1.5L34.35,11H37a1.1,1.1,0,0,0,1-1A1.06,1.06,0,0,0,37,8.93Z"/><path class="cls-1" d="M41.9,29.86H37.34l3-3a2.13,2.13,0,0,0-3-3l-3.29,3.29v-5a2.1,2.1,0,1,0-4.19,0v5.11l-3.38-3.38a2.13,2.13,0,0,0-3,3l3,3H22.1A2.18,2.18,0,0,0,20,32a2.12,2.12,0,0,0,2.1,2.1h5l-3.74,3.74a2.16,2.16,0,0,0,0,3,2.14,2.14,0,0,0,1.55.63,1.83,1.83,0,0,0,1.46-.63l3.47-3.47V41.9a2.1,2.1,0,1,0,4.19,0V37.43l3.38,3.38a2.15,2.15,0,0,0,1.55.63,1.82,1.82,0,0,0,1.46-.63,2.16,2.16,0,0,0,0-3L36.7,34.05h5.2A2.18,2.18,0,0,0,44,32,2.12,2.12,0,0,0,41.9,29.86Z"/><path class="cls-1" d="M18,18.93H15.67l1.5-1.51a1.05,1.05,0,0,0,0-1.5,1.07,1.07,0,0,0-1.5,0L14,17.56V15.05a1.05,1.05,0,1,0-2.1,0V17.6l-1.69-1.68a1.08,1.08,0,0,0-1.51,0,1.07,1.07,0,0,0,0,1.5l1.51,1.51H8.05A1.09,1.09,0,0,0,7,20,1.07,1.07,0,0,0,8.05,21h2.51L8.69,22.9a1.07,1.07,0,0,0,.77,1.82.89.89,0,0,0,.73-.32l1.74-1.73V25A1,1,0,1,0,14,25V22.71l1.68,1.69a1.08,1.08,0,0,0,.78.32.9.9,0,0,0,.73-.32,1.07,1.07,0,0,0,0-1.5L15.35,21H18A1.1,1.1,0,0,0,19,20,1.06,1.06,0,0,0,18,18.93Z"/><path class="cls-1" d="M56,18.93H53.67l1.5-1.51a1.05,1.05,0,0,0,0-1.5,1.07,1.07,0,0,0-1.5,0L52,17.56V15.05a1,1,0,0,0-2.1,0V17.6l-1.69-1.68a1.08,1.08,0,0,0-1.51,0,1.07,1.07,0,0,0,0,1.5l1.51,1.51H46.05A1.09,1.09,0,0,0,45,20a1.07,1.07,0,0,0,1,1.05h2.51L46.69,22.9a1.07,1.07,0,0,0,.77,1.82.89.89,0,0,0,.73-.32l1.74-1.73V25A1,1,0,0,0,52,25V22.71l1.68,1.69a1.08,1.08,0,0,0,.78.32.9.9,0,0,0,.73-.32,1.07,1.07,0,0,0,0-1.5L53.35,21H56A1.1,1.1,0,0,0,57,20,1.06,1.06,0,0,0,56,18.93Z"/><path class="cls-1" d="M56,43.93H53.67l1.5-1.51a1.05,1.05,0,0,0,0-1.5,1.07,1.07,0,0,0-1.5,0L52,42.56V40.05a1,1,0,0,0-2.1,0V42.6l-1.69-1.68a1.08,1.08,0,0,0-1.51,0,1.07,1.07,0,0,0,0,1.5l1.51,1.51H46.05a1.09,1.09,0,0,0-1,1,1.07,1.07,0,0,0,1,1.05h2.51L46.69,47.9a1.07,1.07,0,0,0,.77,1.82.89.89,0,0,0,.73-.32l1.74-1.73V50A1.05,1.05,0,1,0,52,50V47.71l1.68,1.69a1.08,1.08,0,0,0,.78.32.9.9,0,0,0,.73-.32,1.07,1.07,0,0,0,0-1.5L53.35,46H56A1.1,1.1,0,0,0,57,45,1.06,1.06,0,0,0,56,43.93Z"/><path class="cls-1" d="M37,52.93H34.67l1.5-1.51a1.05,1.05,0,0,0,0-1.5,1.07,1.07,0,0,0-1.5,0L33,51.56V49.05a1,1,0,0,0-2.1,0V51.6l-1.69-1.68a1.08,1.08,0,0,0-1.51,0,1.07,1.07,0,0,0,0,1.5l1.51,1.51H27.05A1.09,1.09,0,0,0,26,54,1.07,1.07,0,0,0,27.05,55h2.51L27.69,56.9a1.07,1.07,0,0,0,.77,1.82.89.89,0,0,0,.73-.32l1.74-1.73V59A1.05,1.05,0,1,0,33,59V56.71l1.68,1.69a1.08,1.08,0,0,0,.78.32.9.9,0,0,0,.73-.32,1.07,1.07,0,0,0,0-1.5L34.35,55H37A1.1,1.1,0,0,0,38,54,1.06,1.06,0,0,0,37,52.93Z"/><path class="cls-1" d="M18,43.93H15.67l1.5-1.51a1.05,1.05,0,0,0,0-1.5,1.07,1.07,0,0,0-1.5,0L14,42.56V40.05a1,1,0,0,0-2.1,0V42.6l-1.69-1.68a1.08,1.08,0,0,0-1.51,0,1.07,1.07,0,0,0,0,1.5l1.51,1.51H8.05A1.09,1.09,0,0,0,7,45,1.07,1.07,0,0,0,8.05,46h2.51L8.69,47.9a1.07,1.07,0,0,0,.77,1.82.89.89,0,0,0,.73-.32l1.74-1.73V50A1.05,1.05,0,1,0,14,50V47.71l1.68,1.69a1.08,1.08,0,0,0,.78.32.9.9,0,0,0,.73-.32,1.07,1.07,0,0,0,0-1.5L15.35,46H18A1.1,1.1,0,0,0,19,45,1.06,1.06,0,0,0,18,43.93Z"/></svg>