<svg id="图层_1" data-name="图层 1" xmlns="http://www.w3.org/2000/svg" viewBox="0 0 64 64"><defs><style>.cls-1{fill:#fff;}</style></defs><title>499-雪-snow</title><path class="cls-1" d="M53.92,34.44,43.51,37.21,32.67,31l10.84-6.2,10.41,2.76a.78.78,0,0,0,.22,0,.84.84,0,0,0,.22-1.66L45.59,23.6l7.76-4.45A.85.85,0,0,0,53.66,18a.86.86,0,0,0-1.16-.31l-7.81,4.47L47,13.47A.85.85,0,1,0,45.39,13L42.6,23.36,31.82,29.54V17.12l7.62-7.56a.82.82,0,0,0,0-1.19.83.83,0,0,0-1.2,0l-6.42,6.37V5.84a.85.85,0,0,0-1.7,0v9L23.7,8.42a.85.85,0,0,0-1.2,1.2l7.62,7.56V29.54L19.29,23.33,16.5,13a.86.86,0,0,0-1.05-.6.85.85,0,0,0-.6,1l2.35,8.7L9.44,17.69A.86.86,0,0,0,8.28,18a.84.84,0,0,0,.31,1.15l7.81,4.48L7.63,26A.86.86,0,0,0,7,27a.84.84,0,0,0,.82.62l.22,0,10.41-2.77L29.27,31,18.48,37.18,8.07,34.41a.85.85,0,1,0-.44,1.64l8.77,2.33L8.6,42.85A.85.85,0,0,0,9,44.43a.92.92,0,0,0,.43-.11l7.75-4.44-2.34,8.69a.84.84,0,0,0,.6,1l.22,0A.85.85,0,0,0,16.5,49l2.79-10.35,10.83-6.21V44.83L22.5,52.39a.84.84,0,0,0,0,1.19.85.85,0,0,0,1.2,0l6.42-6.37v8.95a.85.85,0,0,0,1.7,0V47.27l6.42,6.37a.86.86,0,0,0,.6.25.9.9,0,0,0,.61-.25.84.84,0,0,0,0-1.19l-7.63-7.57V32.46l10.79,6.19L45.4,49a.85.85,0,0,0,1,.59.86.86,0,0,0,.61-1L44.7,39.84l7.81,4.47a.91.91,0,0,0,.42.11.85.85,0,0,0,.43-1.58L45.6,38.4l8.77-2.33a.85.85,0,0,0,.6-1A.87.87,0,0,0,53.92,34.44Z"/></svg>