<svg id="图层_1" data-name="图层 1" xmlns="http://www.w3.org/2000/svg" viewBox="0 0 64 64"><defs><style>.cls-1{fill:#fff;}.cls-2{opacity:0.9;}.cls-3{fill:#3dd0ff;}</style></defs><title>500-薄雾-Mist </title><path id="路径" class="cls-1" d="M13.84,45A9.67,9.67,0,0,1,4,35.51,9.67,9.67,0,0,1,13.84,26h0c0-.17,0-.35,0-.52C13.84,16.94,21,10,29.92,10a16.17,16.17,0,0,1,14.16,8.14A15.1,15.1,0,0,1,46,18a13.76,13.76,0,0,1,14,13.5A13.75,13.75,0,0,1,46,45Z"/><g class="cls-2"><path class="cls-3" d="M49.53,55H14.47a1.5,1.5,0,0,1,0-3H49.53a1.5,1.5,0,0,1,0,3Z"/></g></svg>