<svg id="图层_1" data-name="图层 1" xmlns="http://www.w3.org/2000/svg" viewBox="0 0 64 64"><defs><style>.cls-1{fill:#fff;}.cls-2{opacity:0.9;}.cls-3{fill:#a1a1a1;}</style></defs><title>502-霾-Haze</title><path id="路径" class="cls-1" d="M13.84,41.5A9.67,9.67,0,0,1,4,32a9.67,9.67,0,0,1,9.84-9.49h0c0-.17,0-.35,0-.52,0-8.56,7.2-15.5,16.08-15.5a16.17,16.17,0,0,1,14.16,8.14A15.1,15.1,0,0,1,46,14.51,13.76,13.76,0,0,1,60,28,13.75,13.75,0,0,1,46,41.5Z"/><g class="cls-2"><path class="cls-3" d="M49.53,49.5H14.47a1.5,1.5,0,0,1,0-3H49.53a1.5,1.5,0,0,1,0,3Z"/></g><g class="cls-2"><path class="cls-3" d="M49.53,57.5H14.47a1.5,1.5,0,0,1,0-3H49.53a1.5,1.5,0,0,1,0,3Z"/></g></svg>