<svg id="图层_1" data-name="图层 1" xmlns="http://www.w3.org/2000/svg" viewBox="0 0 64 64"><defs><style>.cls-1{fill:#fafafa;}.cls-2{fill:#d6c8b1;}.cls-3{fill:#ebebeb;}</style></defs><title>503-扬沙-Sand</title><path class="cls-1" d="M42,41H6a2,2,0,0,1,0-4H42a8,8,0,1,0-8-8v.14a2,2,0,0,1-4,0V29A12,12,0,1,1,42,41Z"/><circle class="cls-2" cx="15" cy="25" r="2"/><circle class="cls-2" cx="8" cy="31" r="2"/><path class="cls-2" d="M22,33a2,2,0,1,1,2-2,2,2,0,0,1-2,2Z"/><circle class="cls-2" cx="8" cy="19.01" r="2"/><path class="cls-2" d="M22,21a2,2,0,1,1,2-2,2,2,0,0,1-2,2Z"/><path class="cls-3" d="M6,47H58a2,2,0,0,1,0,4H6a2,2,0,0,1,0-4Z"/></svg>