<svg id="图层_1" data-name="图层 1" xmlns="http://www.w3.org/2000/svg" viewBox="0 0 64 64"><defs><style>.cls-1{fill:#d6c8b1;}.cls-2{fill:none;stroke:#ebebeb;stroke-linecap:round;stroke-miterlimit:10;stroke-width:4px;}</style></defs><title>504-浮尘-Dust</title><path class="cls-1" d="M46.73,38.73a2.5,2.5,0,1,0,3.54,0A2.52,2.52,0,0,0,46.73,38.73Zm-31-1a2.5,2.5,0,1,0,3.54,0A2.52,2.52,0,0,0,15.73,37.73Zm28-27a2.5,2.5,0,1,0,3.54,0A2.52,2.52,0,0,0,43.73,10.73ZM24.59,32.59a2,2,0,1,0,2.82,0A2,2,0,0,0,24.59,32.59Zm10-14a2,2,0,1,0,2.82,0A2,2,0,0,0,34.59,18.59Zm2.85,17.85a1.48,1.48,0,0,0,0,2.11,1.51,1.51,0,0,0,2.12,0,1.5,1.5,0,0,0-2.12-2.11Zm-17-15a1.5,1.5,0,1,0,2.12,0A1.49,1.49,0,0,0,20.44,21.44Zm9-9a1.5,1.5,0,1,0,2.12,0A1.49,1.49,0,0,0,29.44,12.44ZM27.28,42.6a1.41,1.41,0,1,0,2,0A1.41,1.41,0,0,0,27.28,42.6ZM42.44,26.44a1.5,1.5,0,1,0,2.12,0A1.49,1.49,0,0,0,42.44,26.44Zm-11,1a1.5,1.5,0,1,0,2.12,0A1.49,1.49,0,0,0,31.44,27.44ZM15.59,11.59a2,2,0,1,0,2.82,0A2,2,0,0,0,15.59,11.59ZM10.44,28.44a1.5,1.5,0,1,0,2.12,0A1.49,1.49,0,0,0,10.44,28.44Z"/><line class="cls-2" x1="57" y1="54" x2="7" y2="54"/></svg>