<svg id="图层_1" data-name="图层 1" xmlns="http://www.w3.org/2000/svg" viewBox="0 0 64 64"><defs><style>.cls-1{fill:#d6c8b1;}.cls-2{fill:none;stroke:#f2f2f2;stroke-linecap:round;stroke-miterlimit:10;stroke-width:4px;}</style></defs><title>507-沙尘暴-Duststorm</title><circle class="cls-1" cx="56" cy="20" r="2"/><circle class="cls-1" cx="56" cy="32" r="2"/><circle class="cls-1" cx="56" cy="45" r="2"/><path class="cls-1" d="M45.5,10A2.5,2.5,0,1,0,48,12.5,2.5,2.5,0,0,0,45.5,10Z"/><path class="cls-1" d="M45.5,23A2.5,2.5,0,1,0,48,25.5,2.5,2.5,0,0,0,45.5,23Z"/><path class="cls-1" d="M45.5,36A2.5,2.5,0,1,0,48,38.5,2.5,2.5,0,0,0,45.5,36Z"/><path class="cls-1" d="M45.5,49A2.5,2.5,0,1,0,48,51.5,2.5,2.5,0,0,0,45.5,49Z"/><path class="cls-2" d="M23.82,15.11A7.18,7.18,0,0,1,29.72,12,7.39,7.39,0,0,1,37,19.5,7.39,7.39,0,0,1,29.82,27H5"/><path class="cls-2" d="M22.82,49.89A7.18,7.18,0,0,0,28.72,53a7.51,7.51,0,0,0,.1-15H12"/></svg>