<svg id="图层_1" data-name="图层 1" xmlns="http://www.w3.org/2000/svg" viewBox="0 0 64 64"><defs><style>.cls-1{fill:#d6c8b1;}.cls-2,.cls-3{fill:#fff;}.cls-3{stroke:#fff;stroke-miterlimit:10;stroke-width:0.6px;opacity:0.95;}</style></defs><title>508-强沙尘暴-Sandstorm</title><path class="cls-1" d="M16,6a2,2,0,1,0,.21,0Z"/><path class="cls-1" d="M45,9h-.21a1.92,1.92,0,0,1-1.34-.73,2,2,0,0,1,3.1-2.52A2,2,0,0,1,47,7.2,2,2,0,0,1,45,9Z"/><path class="cls-1" d="M53,17.07A2,2,0,1,0,55,15a2,2,0,0,0-1.38.6A2.11,2.11,0,0,0,53,17.07Z"/><path class="cls-1" d="M49,32.07A2,2,0,1,0,51,30a2,2,0,0,0-1.38.6A2.11,2.11,0,0,0,49,32.07Z"/><path class="cls-1" d="M9,16a2,2,0,1,1,0-4H9.2a2,2,0,0,1,1.34.74A2,2,0,0,1,9,16Z"/><path class="cls-1" d="M12,43.18a2,2,0,1,1,0-4h.21a2,2,0,0,1,1.34.74A2,2,0,0,1,12,43.18Z"/><path class="cls-1" d="M38,14a.68.68,0,0,1-.2,0,1.9,1.9,0,0,1-1.34-.71,2,2,0,0,1,.24-2.79,2,2,0,0,1,1.5-.46A2,2,0,0,1,40,12.19h0A2,2,0,0,1,38,14Z"/><path class="cls-1" d="M23.51,13h-.15A1.5,1.5,0,1,1,25,11.64h0A1.5,1.5,0,0,1,23.51,13Z"/><path class="cls-1" d="M48.51,42h-.15A1.5,1.5,0,1,1,50,40.64h0A1.5,1.5,0,0,1,48.51,42Z"/><path class="cls-1" d="M10.51,33h-.15A1.5,1.5,0,1,1,12,31.64h0A1.5,1.5,0,0,1,10.51,33Z"/><path class="cls-1" d="M30.51,9h-.15A1.5,1.5,0,1,1,32,7.64h0A1.5,1.5,0,0,1,30.51,9Z"/><path class="cls-1" d="M21,23a2,2,0,0,0,2,2,2,2,0,0,0,2-2,2,2,0,0,0-2-2,2,2,0,0,0-2,2Z"/><path class="cls-2" d="M30.51,32.9a1.23,1.23,0,0,1,0-2.45,24.16,24.16,0,0,0,7.82-1.15c2.12-.77,2.59-1.55,2.59-1.8s-.47-1-2.59-1.79a24.18,24.18,0,0,0-7.82-1.14,1.23,1.23,0,0,1,0-2.46,26.52,26.52,0,0,1,8.62,1.29c3.49,1.25,4.21,2.92,4.21,4.1s-.73,2.86-4.21,4.11A26.25,26.25,0,0,1,30.51,32.9Z"/><path class="cls-3" d="M30,32.9a37.23,37.23,0,0,1-13.74-2.35c-4-1.66-6.26-4-6.26-6.6s2.23-4.94,6.26-6.59A37.23,37.23,0,0,1,30,15a37.23,37.23,0,0,1,13.74,2.36C47.78,19,50,21.36,50,24s-2.22,4.94-6.26,6.6A37.23,37.23,0,0,1,30,32.9Zm0-15.44a34.9,34.9,0,0,0-12.83,2.17c-3,1.22-4.74,2.84-4.74,4.32s1.77,3.1,4.74,4.32A34.9,34.9,0,0,0,30,30.44a34.9,34.9,0,0,0,12.83-2.17c3-1.22,4.74-2.83,4.74-4.32s-1.77-3.1-4.74-4.32A34.9,34.9,0,0,0,30,17.46ZM30,59a13.55,13.55,0,0,1-6.19-1.36c-1.93-1-3-2.44-3-4a1.21,1.21,0,1,1,2.42,0c0,.62.63,1.31,1.68,1.86A11.38,11.38,0,0,0,30,56.54a11.38,11.38,0,0,0,5.08-1.08c1.05-.55,1.67-1.24,1.67-1.86a1.22,1.22,0,1,1,2.43,0c0,1.6-1.06,3-3,4A13.55,13.55,0,0,1,30,59Zm0-8.26a23.37,23.37,0,0,1-8.68-1.5c-2.68-1.1-4.15-2.7-4.15-4.51a1.21,1.21,0,1,1,2.42,0c0,.7,1,1.58,2.65,2.24A21.15,21.15,0,0,0,30,48.28,21.19,21.19,0,0,0,37.76,47c1.61-.66,2.65-1.54,2.65-2.24a1.21,1.21,0,0,1,2.42,0c0,1.81-1.48,3.41-4.15,4.51A23.4,23.4,0,0,1,30,50.74Zm0-8.28a27.11,27.11,0,0,1-10-1.72c-3-1.25-4.72-3.05-4.72-5.07a1.21,1.21,0,1,1,2.42,0c0,.91,1.23,2,3.21,2.8A24.82,24.82,0,0,0,30,40a24.82,24.82,0,0,0,9.11-1.53c2-.82,3.21-1.89,3.21-2.8a1.22,1.22,0,1,1,2.43,0c0,2-1.68,3.82-4.72,5.07A27.21,27.21,0,0,1,30,42.46Z"/></svg>