<svg id="图层_1" data-name="图层 1" xmlns="http://www.w3.org/2000/svg" viewBox="0 0 64 64"><defs><style>.cls-1{fill:#fff;}.cls-2{opacity:0.9;}.cls-3{fill:#3dd0ff;}</style></defs><title>509-浓雾-Dense fog</title><path id="路径" class="cls-1" d="M12.84,38C7.41,38,3,33.87,3,28.78s4.41-9.21,9.84-9.21h0c0-.17,0-.34,0-.52,0-8.31,7.2-15,16.08-15a16.27,16.27,0,0,1,14.16,7.91A15.1,15.1,0,0,1,45,11.78c7.73,0,14,5.87,14,13.11S52.73,38,45,38Z"/><g class="cls-2"><path class="cls-3" d="M51.53,45H12.47a1.5,1.5,0,0,1,0-3H51.53a1.5,1.5,0,0,1,0,3Z"/></g><g class="cls-2"><path class="cls-3" d="M51.53,52H12.47a1.5,1.5,0,0,1,0-3H51.53a1.5,1.5,0,0,1,0,3Z"/></g><g class="cls-2"><path class="cls-3" d="M51.53,59H12.47a1.5,1.5,0,0,1,0-3H51.53a1.5,1.5,0,0,1,0,3Z"/></g></svg>