<svg id="图层_1" data-name="图层 1" xmlns="http://www.w3.org/2000/svg" viewBox="0 0 64 64"><defs><style>.cls-1{fill:#fff;}.cls-2{opacity:0.9;}.cls-3{fill:#a1a1a1;}</style></defs><title>511-中度霾-Moderate haze</title><path id="路径" class="cls-1" d="M13.84,38.5C8.41,38.5,4,34.37,4,29.28s4.41-9.21,9.84-9.21h0c0-.17,0-.34,0-.52,0-8.31,7.2-15,16.08-15a16.27,16.27,0,0,1,14.16,7.91A15.1,15.1,0,0,1,46,12.28c7.73,0,14,5.87,14,13.11S53.73,38.5,46,38.5Z"/><g class="cls-2"><path class="cls-3" d="M52.53,45.5H13.47a1.5,1.5,0,0,1,0-3H52.53a1.5,1.5,0,0,1,0,3Z"/></g><g class="cls-2"><path class="cls-3" d="M52.53,52.5H13.47a1.5,1.5,0,0,1,0-3H52.53a1.5,1.5,0,0,1,0,3Z"/></g><g class="cls-2"><path class="cls-3" d="M52.53,59.5H13.47a1.5,1.5,0,0,1,0-3H52.53a1.5,1.5,0,0,1,0,3Z"/></g></svg>