<svg id="图层_1" data-name="图层 1" xmlns="http://www.w3.org/2000/svg" viewBox="0 0 64 64"><defs><style>.cls-1{opacity:0.9;}.cls-2{fill:#a1a1a1;}</style></defs><title>513-严重霾-Severe haze</title><g class="cls-1"><path class="cls-2" d="M55.53,33.5H8.47a1.5,1.5,0,0,1,0-3H55.53a1.5,1.5,0,0,1,0,3Z"/></g><g class="cls-1"><path class="cls-2" d="M55.53,23.5H8.47a1.5,1.5,0,0,1,0-3H55.53a1.5,1.5,0,0,1,0,3Z"/></g><g class="cls-1"><path class="cls-2" d="M55.53,43.5H8.47a1.5,1.5,0,0,1,0-3H55.53a1.5,1.5,0,0,1,0,3Z"/></g><g class="cls-1"><path class="cls-2" d="M55.53,53.5H8.47a1.5,1.5,0,0,1,0-3H55.53a1.5,1.5,0,0,1,0,3Z"/></g><g class="cls-1"><path class="cls-2" d="M55.53,13.5H8.47a1.5,1.5,0,0,1,0-3H55.53a1.5,1.5,0,0,1,0,3Z"/></g></svg>