<svg id="图层_1" data-name="图层 1" xmlns="http://www.w3.org/2000/svg" viewBox="0 0 64 64"><defs><style>.cls-1{opacity:0.9;}.cls-2{fill:#3dd0ff;}</style></defs><title>515-特强浓雾-Extra heavy fog</title><g class="cls-1"><path class="cls-2" d="M55.53,33H8.47a1.5,1.5,0,0,1,0-3H55.53a1.5,1.5,0,0,1,0,3Z"/></g><g class="cls-1"><path class="cls-2" d="M55.53,23H8.47a1.5,1.5,0,0,1,0-3H55.53a1.5,1.5,0,0,1,0,3Z"/></g><g class="cls-1"><path class="cls-2" d="M55.53,43H8.47a1.5,1.5,0,0,1,0-3H55.53a1.5,1.5,0,0,1,0,3Z"/></g><g class="cls-1"><path class="cls-2" d="M55.53,53H8.47a1.5,1.5,0,0,1,0-3H55.53a1.5,1.5,0,0,1,0,3Z"/></g><g class="cls-1"><path class="cls-2" d="M55.53,13H8.47a1.5,1.5,0,0,1,0-3H55.53a1.5,1.5,0,0,1,0,3Z"/></g></svg>