<svg id="图层_1" data-name="图层 1" xmlns="http://www.w3.org/2000/svg" viewBox="0 0 64 64"><defs><style>.cls-1{fill:#f6bb42;}.cls-2{fill:#ffce54;}.cls-3{fill:#f5f7fa;}.cls-4{fill:#da4453;}.cls-5{fill:#ed5564;}</style></defs><title>900-热-Hot</title><path class="cls-1" d="M41,9a1.18,1.18,0,0,0-1.18,1.18v2.37a1.18,1.18,0,0,0,2.36,0V10.18A1.18,1.18,0,0,0,41,9Zm0,21.27a1.18,1.18,0,0,0-1.18,1.18v2.37a1.18,1.18,0,0,0,2.36,0V31.45A1.18,1.18,0,0,0,41,30.27Z"/><path class="cls-2" d="M31.81,12.81a1.18,1.18,0,0,0,0,1.67l1.67,1.67a1.18,1.18,0,0,0,1.67-1.67l-1.67-1.67A1.18,1.18,0,0,0,31.81,12.81Zm15,15a1.18,1.18,0,0,0,0,1.67l1.67,1.67a1.18,1.18,0,0,0,1.67,0,1.17,1.17,0,0,0,0-1.67l-1.67-1.67A1.18,1.18,0,0,0,46.85,27.85Z"/><path class="cls-1" d="M28,22a1.18,1.18,0,0,0,1.18,1.18h2.37a1.18,1.18,0,0,0,0-2.36H29.18A1.18,1.18,0,0,0,28,22Zm21.27,0a1.18,1.18,0,0,0,1.18,1.18h2.37a1.18,1.18,0,0,0,0-2.36H50.45A1.18,1.18,0,0,0,49.27,22Z"/><path class="cls-2" d="M31.81,31.19a1.18,1.18,0,0,0,1.67,0l1.67-1.67a1.18,1.18,0,0,0-1.67-1.67l-1.67,1.67A1.18,1.18,0,0,0,31.81,31.19Zm15-15a1.18,1.18,0,0,0,1.67,0l1.67-1.67a1.17,1.17,0,0,0,0-1.67,1.18,1.18,0,0,0-1.67,0l-1.67,1.67A1.18,1.18,0,0,0,46.85,16.15ZM41,27.91A5.91,5.91,0,1,1,46.91,22,5.92,5.92,0,0,1,41,27.91Z"/><path class="cls-1" d="M41,14.91A7.09,7.09,0,1,0,48.09,22,7.08,7.08,0,0,0,41,14.91Zm0,11.82A4.73,4.73,0,1,1,45.73,22,4.74,4.74,0,0,1,41,26.73Z"/><path class="cls-3" d="M24,5.5a3.56,3.56,0,0,1,3.5,3.61v37l.81.75a6.71,6.71,0,0,1,2.19,5,6.5,6.5,0,1,1-13,0,6.71,6.71,0,0,1,2.19-5l.81-.75v-37A3.56,3.56,0,0,1,24,5.5M24,3a6.05,6.05,0,0,0-6,6.11V45a9.18,9.18,0,0,0-3,6.81,9,9,0,1,0,18,0A9.18,9.18,0,0,0,30,45V9.11A6.05,6.05,0,0,0,24,3Z"/><path class="cls-4" d="M23.78,52.67a1.59,1.59,0,0,1-1.28-1.62V19.24a1.6,1.6,0,0,1,1.28-1.63,1.5,1.5,0,0,1,1.72,1.51V51.17A1.5,1.5,0,0,1,23.78,52.67Z"/><path class="cls-5" d="M24.13,54.09a2.46,2.46,0,1,1,2.41-2.45A2.43,2.43,0,0,1,24.13,54.09Z"/><path class="cls-4" d="M24,47.26a4.58,4.58,0,1,0,4.5,4.58A4.54,4.54,0,0,0,24,47.26Zm0,6.11a1.53,1.53,0,1,1,1.5-1.53A1.52,1.52,0,0,1,24,53.37Z"/></svg>