<svg id="图层_1" data-name="图层 1" xmlns="http://www.w3.org/2000/svg" viewBox="0 0 64 64"><defs><style>.cls-1{fill:#fff;}.cls-2{fill:#f5f7fa;}.cls-3{fill:#14b8f5;}.cls-4{fill:#3dd0ff;}</style></defs><title>901-冷-Cold</title><path class="cls-1" d="M42,9a1.08,1.08,0,0,0-.74.29A1,1,0,0,0,41,10v2.59l-1.17-1.12a1.06,1.06,0,0,0-1.48,0,1,1,0,0,0,0,1.38l0,0L41,15.41v3.86l-3.49-1.93-1-3.46a1,1,0,0,0-.73-.73,1.08,1.08,0,0,0-1,.26,1,1,0,0,0-.26,1l.43,1.54-2.34-1.3a1.08,1.08,0,0,0-1.38.39,1,1,0,0,0,.34,1.35l2.34,1.29-1.6.41a1,1,0,0,0-.75,1.21h0A1,1,0,0,0,32.8,20l3.62-.93L39.91,21l-3.49,1.93L32.8,22a1,1,0,0,0-1.24.72,1,1,0,0,0,.7,1.21l1.6.41-2.34,1.29A1,1,0,0,0,31,26.76a1,1,0,0,0,1,.74,1.06,1.06,0,0,0,.52-.13l2.34-1.3-.43,1.54a1,1,0,0,0,.26,1,1.06,1.06,0,0,0,1,.27,1,1,0,0,0,.73-.74l1-3.46L41,22.73v4L38.3,29.29a1,1,0,0,0-.22,1.09,1.05,1.05,0,0,0,1.39.53,1.27,1.27,0,0,0,.31-.2L41,29.59V32A1,1,0,0,0,43,32V29.58l1.17,1.13a1.09,1.09,0,0,0,1.48,0,1,1,0,0,0,0-1.4l0,0L43,26.76v-4l3.64,2,1,3.46a1,1,0,0,0,.74.74,1.08,1.08,0,0,0,1-.26,1,1,0,0,0,.25-1l-.43-1.53,2.19,1.21A1.09,1.09,0,0,0,52.82,27a1,1,0,0,0-.35-1.35l-2.18-1.2,1.6-.41a1,1,0,0,0,.74-.71,1,1,0,0,0-.27-1,1.1,1.1,0,0,0-1-.26L47.73,23l-3.65-2,3.65-2,3.61.92a1.05,1.05,0,0,0,1.29-.7A1,1,0,0,0,51.91,18h0l-1.6-.41,2.18-1.2a1,1,0,0,0,0-1.74,1.09,1.09,0,0,0-1,0l-2.19,1.21.43-1.53a1,1,0,0,0-.75-1.18,1,1,0,0,0-1.27.66l-1,3.47-3.64,2V15.41l2.65-2.53a1,1,0,0,0,0-1.39l0,0a1.08,1.08,0,0,0-1.48,0L43,12.59V10a1,1,0,0,0-.31-.71A1,1,0,0,0,42,9"/><path class="cls-2" d="M26,5.5a3.56,3.56,0,0,1,3.5,3.61v37l.81.75a6.71,6.71,0,0,1,2.19,5,6.5,6.5,0,1,1-13,0,6.71,6.71,0,0,1,2.19-5l.81-.75v-37A3.56,3.56,0,0,1,26,5.5M26,3a6.05,6.05,0,0,0-6,6.11V45a9.18,9.18,0,0,0-3,6.81,9,9,0,1,0,18,0A9.18,9.18,0,0,0,32,45V9.11A6.05,6.05,0,0,0,26,3Z"/><path class="cls-3" d="M25.78,52.67a1.59,1.59,0,0,1-1.28-1.62V39.24a1.6,1.6,0,0,1,1.28-1.63,1.5,1.5,0,0,1,1.72,1.51V51.17A1.5,1.5,0,0,1,25.78,52.67Z"/><path class="cls-4" d="M26.13,54.09a2.46,2.46,0,1,1,2.41-2.45A2.43,2.43,0,0,1,26.13,54.09Z"/><path class="cls-3" d="M26,47.26a4.58,4.58,0,1,0,4.5,4.58A4.54,4.54,0,0,0,26,47.26Zm0,6.11a1.53,1.53,0,1,1,1.5-1.53A1.52,1.52,0,0,1,26,53.37Z"/></svg>