<?xml version="1.0" encoding="UTF-8"?>
<svg width="32px" height="32px" viewBox="0 0 32 32" version="1.1" xmlns="http://www.w3.org/2000/svg" xmlns:xlink="http://www.w3.org/1999/xlink">
    <title>天气</title>
    <g id="Edu-OS-Light" stroke="none" stroke-width="1" fill="none" fill-rule="evenodd">
        <g id="锁屏01" transform="translate(-1476.000000, -99.000000)">
            <g id="编组备份" transform="translate(1476.000000, 96.000000)">
                <g id="天气" transform="translate(0.000000, 3.000000)">
                    <rect id="矩形" fill="#000000" fill-rule="nonzero" opacity="0" x="0" y="0" width="32" height="32"></rect>
                    <path d="M6.76923077,22.5 C3.58769231,22.5 1,20.1710769 1,17.3076923 C1,14.9296154 2.79076923,12.8623846 5.35384615,12.2794615 L5.66615385,12.2081538 L5.64384615,11.9194615 C5.62769231,11.7117692 5.61538462,11.5684615 5.61538462,11.4230769 C5.61538462,7.60569231 9.06615385,4.5 13.3076923,4.5 C16.91,4.5 19.99,6.70707692 20.7969231,9.86607692 L20.8815385,10.1990769 L21.2530769,10.1270769 C21.5546154,10.0682308 21.8569231,10.0384615 22.1538462,10.0384615 C24.2492308,10.0384615 26.0046154,11.3905385 26.3276923,13.2542308 L26.3723077,13.5103846 L26.6576923,13.5443077 C29.1330769,13.8371538 31,15.7527692 31,18 C31,20.4812308 28.7569231,22.5 26,22.5 L6.76923077,22.5 Z" id="路径" fill="#FFFFFF" fill-rule="nonzero" opacity="0.449999988" transform="translate(16.000000, 13.500000) scale(-1, 1) translate(-16.000000, -13.500000) "></path>
                    <path d="M12.4778767,16.4952819 C10.9763343,17.5503381 10,19.2624602 10,21.1951988 C10,24.401102 12.6862915,27 16,27 C19.3137085,27 22,24.401102 22,21.1951988 C22,18.9209843 20.6481915,16.9522298 18.6795501,16" id="路径" stroke="#FFFFFF" stroke-width="2" stroke-linecap="round"></path>
                    <path d="M13.7859188,14.5724102 L10.2155128,14.5724102 C9.57933435,14.5724102 9.26073503,15.341577 9.7105811,15.7914231 L13.2809871,19.3618291 C13.7308332,19.8116752 14.5,19.4930759 14.5,18.8568974 L14.5,15.2864914 C14.5,14.8921153 14.180295,14.5724102 13.7859188,14.5724102 Z" id="路径" fill="#FFFFFF" fill-rule="nonzero"></path>
                </g>
            </g>
        </g>
    </g>
</svg>