<svg xmlns="http://www.w3.org/2000/svg"   viewBox="0 0 30 30">
  <g fill="none" fill-rule="evenodd">
    <rect width="30" height="30" fill="#000" fill-rule="nonzero" opacity="0"/>
    <path fill="#FFF" d="M24.9361148,6 C25.8276335,6 26.1509198,6.09282561 26.4768457,6.2671327 C26.8027716,6.4414398 27.0585602,6.69722837 27.2328673,7.0231543 C27.4071744,7.34908022 27.5,7.67236646 27.5,8.5638852 L27.5,20.9361148 C27.5,21.8276335 27.4071744,22.1509198 27.2328673,22.4768457 C27.0585602,22.8027716 26.8027716,23.0585602 26.4768457,23.2328673 C26.1509198,23.4071744 25.8276335,23.5 24.9361148,23.5 L10.1897929,23.5 C9.08716253,23.5 8.70087293,23.4534289 8.27515623,23.3438749 C7.84943953,23.2343209 7.47430637,23.0617841 7.11407403,22.8098526 C6.75384169,22.5579212 6.46708832,22.2949364 5.74950598,21.457757 L1.46211747,16.4558037 C0.932141211,15.8374981 0.795140545,15.5649867 0.705008529,15.2394935 C0.614876512,14.9140004 0.614876512,14.5859996 0.705008529,14.2605065 C0.795140545,13.9350133 0.932141211,13.6625019 1.46211747,13.0441963 L5.74950598,8.04224302 C6.46708832,7.20506363 6.75384169,6.94207879 7.11407403,6.69014736 C7.47430637,6.43821593 7.84943953,6.26567909 8.27515623,6.15612511 C8.67046459,6.05439641 9.03177714,6.00697436 9.96420394,6.0007188 L24.9361148,6 Z M12.9312317,11.0296462 C12.8428022,11.0564488 12.7692433,11.0971889 12.6116435,11.2547886 L12.1922886,11.6741435 C12.0346889,11.8317433 11.9939488,11.9053022 11.9671462,11.9937317 C11.9403435,12.0821612 11.9403435,12.1725962 11.9671462,12.2610257 C11.9939488,12.3494552 12.0346889,12.4230141 12.1922886,12.5806139 L14.6114095,15 L12.1922886,17.4193861 C12.0609555,17.5507193 12.010775,17.6236907 11.9821854,17.6955408 L11.9671462,17.7389743 C11.9403435,17.8274038 11.9403435,17.9178388 11.9671462,18.0062683 C11.9939488,18.0946978 12.0346889,18.1682567 12.1922886,18.3258565 L12.1922886,18.3258565 L12.6116435,18.7452114 C12.7692433,18.9028111 12.8428022,18.9435512 12.9312317,18.9703538 C13.0196612,18.9971565 13.1100962,18.9971565 13.1985257,18.9703538 C13.2869552,18.9435512 13.3605141,18.9028111 13.5181139,18.7452114 L13.5181139,18.7452114 L15.9374095,16.326 L18.3568861,18.7452114 C18.5144859,18.9028111 18.5880448,18.9435512 18.6764743,18.9703538 C18.7649038,18.9971565 18.8553388,18.9971565 18.9437683,18.9703538 C19.0321978,18.9435512 19.1057567,18.9028111 19.2633565,18.7452114 L19.6827114,18.3258565 C19.8403111,18.1682567 19.8810512,18.0946978 19.9078538,18.0062683 C19.9346565,17.9178388 19.9346565,17.8274038 19.9078538,17.7389743 C19.8810512,17.6505448 19.8403111,17.5769859 19.6827114,17.4193861 L17.2634095,15 L19.6827114,12.5806139 C19.8140445,12.4492807 19.864225,12.3763093 19.8928146,12.3044592 L19.9078538,12.2610257 C19.9346565,12.1725962 19.9346565,12.0821612 19.9078538,11.9937317 C19.8810512,11.9053022 19.8403111,11.8317433 19.6827114,11.6741435 L19.6827114,11.6741435 L19.2633565,11.2547886 C19.1057567,11.0971889 19.0321978,11.0564488 18.9437683,11.0296462 C18.8553388,11.0028435 18.7649038,11.0028435 18.6764743,11.0296462 C18.5880448,11.0564488 18.5144859,11.0971889 18.3568861,11.2547886 L18.3568861,11.2547886 L15.9374095,13.674 L13.5181139,11.2547886 C13.3605141,11.0971889 13.2869552,11.0564488 13.1985257,11.0296462 C13.1100962,11.0028435 13.0196612,11.0028435 12.9312317,11.0296462 Z"/>
  </g>
</svg>
