<svg id="图层_76" data-name="图层 76" xmlns="http://www.w3.org/2000/svg" viewBox="0 0 24 24"><defs><style>.cls-1{fill:#fff;}</style></defs><title>下载</title><path class="cls-1" d="M18,10.55a.48.48,0,0,0-.7,0L12,15.79V3a.5.5,0,0,0-1,0V15.81L5.65,10.54a.5.5,0,1,0-.7.72l6.2,6.09h0a.91.91,0,0,0,.16.1h0a.47.47,0,0,0,.38,0h0a.36.36,0,0,0,.16-.11h0L18,11.25A.48.48,0,0,0,18,10.55Z"/><path class="cls-1" d="M19.1,20a.9.9,0,0,1,.9.9V21a.9.9,0,0,1-.9.9H3.9a.77.77,0,0,1-.9-.8V21a.92.92,0,0,1,.9-1H19.1m0-1H3.9A2,2,0,0,0,2,20.9V21a2,2,0,0,0,1.9,2H19a1.9,1.9,0,0,0,1.9-1.9V21a1.84,1.84,0,0,0-1.8-2Z"/></svg>