<?xml version="1.0" encoding="utf-8"?>
<!-- Generator: Adobe Illustrator 23.0.1, SVG Export Plug-In . SVG Version: 6.00 Build 0)  -->
<svg version="1.1" id="图层_1" xmlns="http://www.w3.org/2000/svg" xmlns:xlink="http://www.w3.org/1999/xlink" x="0px" y="0px"
	 width="90px" height="30px" viewBox="0 0 90 30" style="enable-background:new 0 0 90 30;" xml:space="preserve">
<style type="text/css">
	.st0{opacity:0.55;}
	.st1{fill:#FFFFFF;}
	.st2{fill-rule:evenodd;clip-rule:evenodd;fill:#FFFFFF;}
</style>
<g id="横向" class="st0">
	<path class="st1" d="M39.8,6v13.8h-1.7c0.2-1.3,0.2-2.7,0.2-4.1V9.3c-0.5,0.9-1,1.8-1.7,2.8c-0.3-0.6-0.6-1-1.1-1.4
		c0.9-1.1,1.7-2.3,2.3-3.7c0.6-1.4,1.1-2.8,1.3-4.2c0.7,0.3,1.2,0.5,1.7,0.6c0.2,0.1,0.3,0.1,0.3,0.2c0,0.1-0.1,0.2-0.3,0.3
		C40.6,4.1,40.3,4.8,39.8,6z M46.5,9.1h-0.7c-0.2,2.4-0.6,4.4-1.3,5.9c-0.6,1.6-1.6,3-2.9,4.3c-0.4-0.5-1-0.8-1.6-1
		c1.4-1,2.4-2.3,3-3.7c0.7-1.4,1.1-3.3,1.3-5.5c-1.4,0-2.6,0.1-3.7,0.2V7.5c0.9,0.1,2.1,0.2,3.8,0.2c0-0.6,0.1-1.4,0.1-2.3
		c0-0.9-0.1-1.8-0.2-2.7c0.5,0.1,1.2,0.2,2.2,0.2c0.1,0,0.2,0,0.2,0.1s-0.1,0.2-0.2,0.2c-0.2,0.1-0.3,0.4-0.3,1l-0.2,3.4h1.6
		c1.8,0,3.3-0.1,4.5-0.2v1.8c-1.2-0.1-2.5-0.2-3.9-0.2v7.4c0,0.4,0,0.6,0.1,0.8c0,0.1,0.2,0.2,0.3,0.3c0.2,0,0.5,0.1,0.9,0.1
		c0.4,0,0.7,0,0.9-0.1c0.2-0.1,0.3-0.3,0.4-0.6c0.1-0.3,0.2-0.9,0.3-1.7c0.5,0.6,1.1,0.9,1.7,0.9c-0.3,1-0.5,1.7-0.8,2.1
		c-0.2,0.4-0.5,0.6-0.9,0.7c-0.4,0.1-1,0.2-1.9,0.2c-0.9,0-1.5,0-1.8-0.1c-0.3-0.1-0.6-0.2-0.7-0.5c-0.1-0.2-0.2-0.7-0.2-1.3V9.1z
		 M48.2,3.6c0.9,0.6,1.7,1.3,2.5,2l-1.1,1.3c-0.8-0.9-1.7-1.7-2.5-2.3L48.2,3.6L48.2,3.6z M59.7,2.9c0.2,0.6,0.4,1.2,0.6,1.8
		c1.5,0,2.4,0,2.8-0.1v1.3c-0.7-0.1-1.6-0.1-2.8-0.1h-3.6v2h1.4V7.2c0-0.3,0-0.6-0.1-1c0.3,0,0.6,0.1,0.7,0.1l0.4,0
		c0.1,0,0.2,0,0.2,0c0,0,0,0.1-0.1,0.1C59.1,6.4,59,6.5,59,6.6v1.2h1.2V7.2c0-0.3,0-0.6-0.1-1c0.3,0,0.6,0.1,0.7,0.1l0.4,0
		c0.1,0,0.2,0,0.2,0c0,0,0,0.1-0.1,0.1c-0.1,0.1-0.1,0.1-0.1,0.3v1.3c1.2,0,1.9-0.1,2.2-0.1c0,0.5,0,1.2,0,2.2c0,1,0,1.6,0,1.8
		c-0.8-0.1-1.7-0.1-2.7-0.1h-4c0,1.6-0.1,2.9-0.3,4c-0.1,1.1-0.4,2.2-0.9,3.4c-0.4-0.6-0.8-1-1.1-1.2c0.5-0.9,0.8-1.8,0.9-2.8
		c0.1-1,0.2-2.4,0.2-4.2c0-1.8,0-3.9-0.1-6.3c0.3,0.1,1.4,0.1,3.5,0.1c-0.2-0.7-0.5-1.2-0.8-1.6L59.7,2.9L59.7,2.9z M56.7,8.8v1.9
		h1.4V8.8H56.7z M58.6,14.8V17c0.2-0.1,0.5-0.3,0.8-0.7c0.2,0.5,0.3,0.8,0.5,1.1l-2.2,1.8c-0.2-0.4-0.5-0.8-0.7-1.1
		c0.3-0.1,0.4-0.3,0.5-0.4c0.1-0.2,0.1-0.5,0.1-0.9v-2.8c0-0.9,0-1.5-0.1-1.8c0.3,0,0.6,0,0.8,0l0.5,0c0.1,0,0.2,0,0.2,0.1
		c0,0.1,0,0.1-0.1,0.2c-0.2,0.1-0.3,0.2-0.3,0.4v0.9h0.5c0.5,0,0.8,0,0.8,0v1.2c-0.2,0-0.5,0-0.8,0H58.6z M59,10.7h1.2V8.8H59V10.7z
		 M61.4,14.7v2.4c0.5-0.1,1.1-0.5,1.7-1.1c0.1,0.4,0.2,0.8,0.4,1.2l-2,1.1c-0.5,0.3-0.8,0.5-1,0.7c-0.2-0.4-0.4-0.8-0.6-1.1
		c0.2-0.1,0.2-0.1,0.3-0.3c0-0.1,0.1-0.4,0.1-0.8v-3c0-0.9,0-1.6-0.1-1.9c0.3,0,0.5,0,0.7,0l0.6,0c0.2,0,0.2,0,0.2,0.1
		c0,0.1,0,0.1-0.1,0.2c-0.2,0.1-0.4,0.3-0.4,0.5v0.9H62c0.5,0,0.8,0,0.8,0v1.1c-0.2,0-0.5,0-0.8,0H61.4z M61.1,10.7h1.1V8.8h-1.1
		V10.7z M65.2,15.6c0.5,0.4,1,0.6,1.4,0.6c0.1,0,0.2,0,0.2,0.1c0,0.1,0,0.1-0.1,0.1c-0.2,0.1-1.1,1.1-2.8,3.1
		c-0.4-0.4-0.8-0.7-1.2-0.9c0.9-0.6,1.5-1.1,1.8-1.5C64.6,16.7,64.9,16.2,65.2,15.6z M63.5,5.2c0.4,0.1,0.8,0.1,1.1,0.1
		c0-0.9,0-1.7-0.1-2.4c0.5,0.1,0.9,0.1,1.3,0.1c0.4,0,0.5,0.1,0.5,0.2c0,0.1-0.1,0.1-0.2,0.2c-0.1,0.1-0.2,0.1-0.2,0.2
		c-0.1,0.1-0.1,0.2-0.1,0.4v1.4h2.8c0-1.2,0-2-0.1-2.4C69,3.1,69.5,3.2,70,3.2c0.2,0,0.2,0,0.2,0.1s0,0.1-0.1,0.2
		c-0.2,0.2-0.3,0.4-0.3,0.6v1.3c0.3,0,0.7,0,1.2-0.1v1.2c-0.5,0-0.9-0.1-1.2-0.1v7.8c0.6,0,1.1-0.1,1.4-0.1v1.3
		c-0.3-0.1-1.6-0.1-3.9-0.1c-2.2,0-3.6,0-4.2,0.1v-1.3c0.3,0,0.8,0.1,1.4,0.1V6.4c-0.4,0-0.8,0.1-1.1,0.1V5.2L63.5,5.2z M65.7,8.3
		h2.8V6.4h-2.8V8.3z M68.5,9.4h-2.8v1.7h2.8V9.4z M65.7,12.1v2.1h2.8v-2.1H65.7z M68.6,15.6c1,1.1,1.8,2.1,2.5,2.9l-1.3,0.9
		c-0.6-1.2-1.3-2.2-2.2-3.1L68.6,15.6L68.6,15.6z M78.1,2.9c0.3,0.6,0.5,1.2,0.6,1.8c1.5,0,2.4-0.1,2.7-0.1V6
		c-0.4-0.1-1.1-0.1-2.2-0.1v1.6c1,0,1.7-0.1,2-0.1c0,0.3-0.1,1-0.1,2.2c0,1.2,0,1.8,0.1,2c-0.3-0.1-0.9-0.1-1.9-0.1v1.6
		c0.5,0,0.9,0,1.2-0.1c0,0.2,0,0.4,0,0.6c0,0.2,0,0.4,0,0.6c-0.3,0-0.6-0.1-1.2-0.1v2.5c0.5-0.3,0.9-0.8,1.4-1.4
		c0.1,0.3,0.3,0.7,0.5,1l-1.5,1.2c-0.5,0.4-0.9,0.8-1.1,1.2c-0.2-0.4-0.4-0.8-0.7-1.2c0.1-0.1,0.2-0.3,0.2-0.4c0-0.1,0-0.4,0-0.8
		v-4.7h-1.3v1.9l1.1-0.1c0,0.2,0,0.4,0,0.6c0,0.2,0,0.4,0,0.6c-0.3,0-0.6-0.1-1.1-0.1v2c0.3-0.2,0.5-0.4,0.7-0.7
		c0.1,0.4,0.2,0.7,0.5,1l-1.4,1.3c-0.2,0.2-0.5,0.5-0.8,0.9c-0.2-0.5-0.4-0.9-0.7-1.2c0.4-0.3,0.6-0.8,0.6-1.4v-4.7h-0.8
		c0,1.8-0.1,3.2-0.2,4.2c-0.1,1-0.4,2.1-0.8,3.2c-0.4-0.7-0.7-1.1-1.1-1.2c0.7-1.3,1.1-3.6,1.1-6.9c0-1.7-0.1-3.7-0.3-6
		c0.4,0.1,1.5,0.1,3.3,0.1c-0.2-0.5-0.5-0.9-0.8-1.4L78.1,2.9L78.1,2.9z M76.3,5.8h-1v1.6h1V5.8z M75.3,8.5v1.8h1V8.5H75.3z
		 M78.3,5.8h-1v1.6h1V5.8z M77.3,10.3h1V8.5h-1V10.3z M79.3,10.3h1V8.5h-1V10.3z M82.8,12.2c1,0,1.6-0.1,1.8-0.2
		c-0.1,2.4-0.4,4-0.9,5c-0.6,1-1.4,1.8-2.6,2.4c-0.3-0.4-0.7-0.8-1.1-1.1c1.3-0.4,2.2-1.1,2.8-2c-0.3-0.5-0.7-0.9-1.2-1.3l0.9-0.6
		c0.3,0.3,0.5,0.5,0.7,0.8c0.2-0.5,0.2-1.2,0.2-2.1h-1.1c-0.3,0.7-0.7,1.3-0.9,1.7c-0.4-0.3-0.8-0.4-1.2-0.4c1-1.1,1.5-2.3,1.7-3.6
		c0.5,0.2,0.8,0.3,1.2,0.3c0.1,0,0.1,0,0.1,0.1c0,0.1,0,0.1-0.1,0.2C83.2,11.5,83,11.8,82.8,12.2z M84.6,7.3
		c-0.3,0.8-0.6,1.4-0.9,1.9c-0.3,0.4-0.8,0.9-1.5,1.5c-0.2-0.4-0.4-0.7-0.8-0.9c0.5-0.3,0.9-0.6,1.2-1c0.3-0.4,0.7-0.9,1.1-1.6
		c-0.9,0-1.6,0.1-2.2,0.2V6.2c0.3,0.1,1.3,0.2,3,0.2V5.3c0-1.1,0-1.8-0.1-2.2c0.3,0.1,0.8,0.1,1.5,0.1c0.1,0,0.2,0,0.2,0.1
		c0,0.1-0.1,0.2-0.2,0.3c-0.1,0.2-0.2,0.4-0.2,0.7v2.1c2.4,0,3.7-0.1,3.9-0.2v1.3c-0.4-0.1-1.4-0.2-2.9-0.2c0.4,0.5,0.9,0.9,1.3,1.2
		c0.5,0.3,1,0.4,1.8,0.5c-0.4,0.4-0.6,0.9-0.8,1.5c-1.6-0.7-2.6-1.8-3.2-3.2h-0.1v1.4c0,1,0,1.9,0.1,2.6h-1.4
		c0.1-0.6,0.1-1.5,0.1-2.6V7.3z M82.8,3.5c0.4,0.6,0.8,1.3,1.2,2l-1.2,0.6c-0.2-0.6-0.6-1.3-1.2-2L82.8,3.5z M87.2,15.5v-2.2
		c-1,0-1.6,0-2,0.1v-1.3c0.5,0.1,1.1,0.1,1.9,0.1c0-0.8,0-1.3-0.1-1.6c0.4,0.1,0.8,0.1,1.1,0.1l0.4,0c0.1,0,0.1,0,0.1,0.1
		c0,0,0,0.1-0.1,0.2c-0.1,0.1-0.1,0.3-0.1,0.5v0.7c0.7,0,1.2-0.1,1.5-0.1v1.3c-0.3,0-0.8-0.1-1.5-0.1v2.2c0.6,0,1.2-0.1,1.7-0.1v1.4
		c-0.4-0.1-0.9-0.1-1.7-0.1c0,1.3,0,2.2,0.1,2.7H87c0.1-0.5,0.1-1.4,0.1-2.7c-0.8,0-1.5,0-2.2,0.1c0.2-1,0.2-1.9,0.2-2.8
		c0.3,0.1,0.5,0.1,0.8,0.1l0.4,0c0.1,0,0.1,0,0.1,0.1c0,0.1,0,0.1-0.1,0.2c0,0.1-0.1,0.5-0.1,1.2H87.2z M86.2,5.6
		c0.5-0.7,0.9-1.4,1.1-2.3c0.5,0.3,1,0.5,1.4,0.5c0.1,0,0.2,0.1,0.2,0.2c0,0.1-0.1,0.1-0.2,0.2c-0.1,0-0.3,0.2-0.4,0.4
		c-0.2,0.2-0.5,0.7-1,1.5C87.1,5.8,86.7,5.6,86.2,5.6L86.2,5.6z"/>
	<path class="st2" d="M14.9,0.1C6.7,0.1,0,6.8,0,15s6.7,14.9,14.9,14.9c8.2,0,14.9-6.7,14.9-14.9S23.1,0.1,14.9,0.1z M20.4,3.6
		c1.2,0,2.2,1,2.2,2.2s-1,2.2-2.2,2.2s-2.2-1-2.2-2.2S19.2,3.6,20.4,3.6z M15,5.6c0.9,0,1.7,0.1,2.6,0.4c0.1,1.5,1.3,2.7,2.9,2.7
		c0.5,0,0.9-0.1,1.3-0.3c1.6,1.6,2.6,3.7,2.8,6l-3.3,0c-0.3-3.1-2.9-5.5-6.1-5.5c-0.9,0-1.7,0.2-2.5,0.5l-1.7-2.9
		C12,5.9,13.5,5.6,15,5.6z M17.5,16.5l0.5,0.9l-0.9,0.8l0.1,0.7l-1.3,0l1-1.4l-0.3-0.4l-1,0.8l0,0.5l-1.2,0l0.8-0.7l0.8-0.9
		l-0.7-0.4l-0.7,0.3l-0.9,0.4l-0.8-0.1l-0.5,0.8l-0.2,1.1H11l0.9-1L11.6,17l-0.2-1.2l-0.6-1.6l1.1-2.1l1.1-0.6l1.1-1.1l-0.3,0.8
		l0.2,0l1.2-1.2l-0.5,1.5l0.3,1.1l-0.8,1.1l1.2,0.9l1.6,0.7l1.2-0.6l0.7-1l1.1-0.3l-0.2,1.4l-0.7,0.3l-0.5-0.1l-0.9,0.5L17.5,16.5z
		 M4.1,17.2C3,17.2,2,16.2,2,15s1-2.2,2.2-2.2c1.2,0,2.2,1,2.2,2.2S5.3,17.2,4.1,17.2z M5.8,17.4C6.5,16.8,7,16,7,15
		c0-1-0.5-1.8-1.2-2.3c0.6-2.3,2-4.2,3.9-5.5l1.7,2.9c-1.6,1.1-2.6,2.9-2.6,5c0,2,1,3.8,2.5,4.9l-1.6,2.9
		C7.8,21.6,6.3,19.7,5.8,17.4z M20.4,26.4c-1.2,0-2.2-1-2.2-2.2c0-1.2,1-2.2,2.2-2.2s2.2,1,2.2,2.2C22.6,25.4,21.6,26.4,20.4,26.4z
		 M21.8,21.7c-0.4-0.2-0.9-0.3-1.3-0.3c-1.6,0-2.9,1.3-2.9,2.9c-0.8,0.2-1.7,0.4-2.6,0.4c-1.5,0-3-0.4-4.2-1l1.6-2.9
		c0.8,0.4,1.7,0.6,2.6,0.6c3.2,0,5.8-2.5,6.1-5.6l3.3,0C24.3,17.9,23.3,20.1,21.8,21.7z"/>
	<g>
		<g>
			<path class="st1" d="M40.4,28.4c-0.4,0-0.8-0.1-1.1-0.2c-0.3-0.1-0.5-0.3-0.7-0.5c-0.2-0.2-0.3-0.5-0.4-0.8
				c-0.1-0.3-0.1-0.6-0.1-1V22h0.9v3.8c0,0.6,0.1,1.1,0.4,1.4c0.3,0.3,0.6,0.4,1.1,0.4c0.2,0,0.4,0,0.6-0.1c0.2-0.1,0.3-0.2,0.5-0.3
				c0.1-0.1,0.2-0.3,0.3-0.6c0.1-0.2,0.1-0.5,0.1-0.8V22h0.9v3.9c0,0.3,0,0.7-0.1,1c-0.1,0.3-0.2,0.6-0.4,0.8
				c-0.2,0.2-0.4,0.4-0.7,0.5C41.1,28.3,40.8,28.4,40.4,28.4z"/>
			<path class="st1" d="M45.1,23.8c0.1-0.1,0.3-0.1,0.5-0.2c0.2-0.1,0.4-0.1,0.7-0.1c0.3,0,0.6,0.1,0.9,0.2c0.3,0.1,0.5,0.3,0.7,0.5
				c0.2,0.2,0.3,0.5,0.4,0.8c0.1,0.3,0.1,0.6,0.1,1c0,0.4-0.1,0.7-0.2,1c-0.1,0.3-0.3,0.6-0.5,0.8c-0.2,0.2-0.4,0.4-0.7,0.5
				c-0.3,0.1-0.6,0.2-1,0.2c-0.4,0-0.7,0-1-0.1c-0.3-0.1-0.5-0.1-0.7-0.2v-6.7l0.8-0.1V23.8z M45.1,27.5c0.1,0,0.2,0,0.4,0.1
				c0.2,0,0.3,0,0.6,0c0.4,0,0.8-0.1,1.1-0.4c0.3-0.3,0.4-0.7,0.4-1.3c0-0.2,0-0.5-0.1-0.7c0-0.2-0.1-0.4-0.2-0.5
				c-0.1-0.2-0.2-0.3-0.4-0.4c-0.2-0.1-0.4-0.1-0.6-0.1c-0.2,0-0.4,0-0.6,0.1c-0.2,0.1-0.3,0.2-0.4,0.2V27.5z"/>
			<path class="st1" d="M53.3,28.1c-0.2,0-0.4,0.1-0.8,0.2c-0.3,0.1-0.7,0.1-1.1,0.1c-0.4,0-0.7-0.1-0.9-0.2
				c-0.2-0.1-0.4-0.3-0.6-0.4c-0.1-0.2-0.3-0.4-0.3-0.7c-0.1-0.3-0.1-0.5-0.1-0.9v-2.6h0.8V26c0,0.6,0.1,1,0.3,1.2
				c0.2,0.2,0.5,0.4,0.9,0.4c0.1,0,0.2,0,0.3,0c0.1,0,0.2,0,0.3,0c0.1,0,0.2,0,0.2,0c0.1,0,0.1,0,0.1,0v-3.9h0.8V28.1z"/>
			<path class="st1" d="M54.7,23.7c0.2,0,0.4-0.1,0.8-0.2c0.3-0.1,0.7-0.1,1.1-0.1c0.4,0,0.7,0.1,0.9,0.2c0.2,0.1,0.4,0.3,0.6,0.4
				c0.1,0.2,0.2,0.4,0.3,0.7c0.1,0.3,0.1,0.6,0.1,0.9v2.6h-0.8v-2.4c0-0.3,0-0.5-0.1-0.7c0-0.2-0.1-0.4-0.2-0.5
				c-0.1-0.1-0.2-0.2-0.4-0.3c-0.1-0.1-0.3-0.1-0.6-0.1c-0.1,0-0.2,0-0.3,0c-0.1,0-0.2,0-0.3,0c-0.1,0-0.2,0-0.2,0
				c-0.1,0-0.1,0-0.1,0v3.9h-0.8V23.7z"/>
			<path class="st1" d="M60.7,23.6h1.8v0.7h-1.8v2.2c0,0.2,0,0.4,0.1,0.6c0,0.2,0.1,0.3,0.2,0.4c0.1,0.1,0.2,0.1,0.3,0.2
				c0.1,0,0.2,0.1,0.4,0.1c0.3,0,0.5,0,0.6-0.1c0.2-0.1,0.3-0.1,0.3-0.1l0.2,0.7c-0.1,0-0.2,0.1-0.4,0.2c-0.2,0.1-0.4,0.1-0.7,0.1
				c-0.3,0-0.6,0-0.8-0.1c-0.2-0.1-0.4-0.2-0.5-0.4c-0.1-0.2-0.2-0.4-0.3-0.6c-0.1-0.2-0.1-0.5-0.1-0.8v-4.2l0.8-0.1V23.6z"/>
			<path class="st1" d="M67.3,28.1c-0.2,0-0.4,0.1-0.8,0.2c-0.3,0.1-0.7,0.1-1.1,0.1c-0.4,0-0.7-0.1-0.9-0.2
				c-0.2-0.1-0.4-0.3-0.6-0.4c-0.1-0.2-0.3-0.4-0.3-0.7c-0.1-0.3-0.1-0.5-0.1-0.9v-2.6h0.8V26c0,0.6,0.1,1,0.3,1.2
				c0.2,0.2,0.5,0.4,0.9,0.4c0.1,0,0.2,0,0.3,0c0.1,0,0.2,0,0.3,0c0.1,0,0.2,0,0.2,0c0.1,0,0.1,0,0.1,0v-3.9h0.8V28.1z"/>
			<path class="st1" d="M75.5,22c-0.2,0.2-0.4,0.4-0.6,0.7c-0.2,0.2-0.5,0.5-0.7,0.8c-0.3,0.3-0.5,0.5-0.8,0.8
				c-0.3,0.3-0.5,0.5-0.7,0.7c0.3,0.2,0.5,0.4,0.8,0.7c0.3,0.3,0.6,0.5,0.8,0.8c0.3,0.3,0.5,0.6,0.8,0.9c0.2,0.3,0.4,0.6,0.6,0.9h-1
				c-0.2-0.3-0.4-0.6-0.6-0.8c-0.2-0.3-0.5-0.6-0.7-0.8c-0.3-0.3-0.5-0.5-0.8-0.7c-0.3-0.2-0.5-0.4-0.8-0.6v3h-0.9V22h0.9v2.7
				c0.2-0.2,0.4-0.4,0.7-0.7c0.3-0.2,0.5-0.5,0.7-0.7c0.2-0.3,0.5-0.5,0.7-0.7c0.2-0.2,0.4-0.4,0.6-0.6H75.5z"/>
			<path class="st1" d="M75.9,29.1c0.1,0,0.2,0.1,0.3,0.1c0.1,0,0.2,0,0.3,0c0.3,0,0.6-0.1,0.8-0.2c0.2-0.1,0.4-0.4,0.5-0.7
				c-0.4-0.7-0.7-1.5-1.1-2.3c-0.3-0.8-0.6-1.6-0.8-2.4h0.9c0.1,0.3,0.1,0.6,0.2,0.9c0.1,0.3,0.2,0.6,0.3,1c0.1,0.3,0.2,0.7,0.4,1
				c0.1,0.3,0.3,0.6,0.4,1c0.2-0.6,0.4-1.3,0.6-1.9c0.2-0.6,0.3-1.3,0.5-1.9H80c-0.2,0.9-0.5,1.7-0.7,2.5c-0.3,0.8-0.5,1.6-0.9,2.3
				c-0.1,0.3-0.2,0.5-0.4,0.7c-0.1,0.2-0.3,0.4-0.4,0.5c-0.2,0.1-0.3,0.2-0.5,0.3c-0.2,0.1-0.4,0.1-0.7,0.1c-0.1,0-0.1,0-0.2,0
				c-0.1,0-0.1,0-0.2,0c-0.1,0-0.1,0-0.2,0c-0.1,0-0.1,0-0.1,0L75.9,29.1z"/>
			<path class="st1" d="M82.3,28.3c-0.5,0-0.9-0.1-1.1-0.3c-0.2-0.2-0.3-0.5-0.3-1v-5.6l0.8-0.1v5.6c0,0.1,0,0.3,0,0.3
				c0,0.1,0.1,0.2,0.1,0.2c0.1,0.1,0.1,0.1,0.2,0.1c0.1,0,0.2,0,0.3,0.1L82.3,28.3z"/>
			<path class="st1" d="M83.8,22.7c-0.1,0-0.3,0-0.4-0.1c-0.1-0.1-0.2-0.2-0.2-0.4c0-0.2,0.1-0.3,0.2-0.4c0.1-0.1,0.2-0.1,0.4-0.1
				c0.1,0,0.3,0,0.4,0.1c0.1,0.1,0.2,0.2,0.2,0.4c0,0.2-0.1,0.3-0.2,0.4C84.1,22.7,84,22.7,83.8,22.7z M84.3,28.2h-0.8v-4.7h0.8
				V28.2z"/>
			<path class="st1" d="M85.7,23.7c0.2,0,0.4-0.1,0.8-0.2c0.3-0.1,0.7-0.1,1.1-0.1c0.4,0,0.7,0.1,0.9,0.2c0.2,0.1,0.4,0.3,0.6,0.4
				c0.1,0.2,0.2,0.4,0.3,0.7c0.1,0.3,0.1,0.6,0.1,0.9v2.6h-0.8v-2.4c0-0.3,0-0.5-0.1-0.7c0-0.2-0.1-0.4-0.2-0.5
				c-0.1-0.1-0.2-0.2-0.4-0.3c-0.1-0.1-0.3-0.1-0.6-0.1c-0.1,0-0.2,0-0.3,0c-0.1,0-0.2,0-0.3,0c-0.1,0-0.2,0-0.2,0
				c-0.1,0-0.1,0-0.1,0v3.9h-0.8V23.7z"/>
		</g>
	</g>
</g>
</svg>
