<?xml version="1.0" encoding="utf-8"?>
<!-- Generator: Adobe Illustrator 24.1.2, SVG Export Plug-In . SVG Version: 6.00 Build 0)  -->
<svg version="1.1" id="图层_1" xmlns="http://www.w3.org/2000/svg" xmlns:xlink="http://www.w3.org/1999/xlink" x="0px" y="0px"
	 viewBox="0 0 107 41" style="enable-background:new 0 0 107 41;" xml:space="preserve">
<style type="text/css">
	.st0{opacity:0.55;}
	.st1{fill:#FFFFFF;}
</style>
<g class="st0">
	<polygon class="st1" points="40.4,14.6 35.5,16.2 32.5,20.7 29.5,22.3 27.3,23.5 20.1,20.5 15,16.6 18.4,11.8 17.2,6.8 19.4,0 
		19.4,0 14.1,5.5 13.3,5.3 14.7,1.9 14.7,1.9 9.8,7 9.4,7.2 5.1,9.9 3,14.4 0,19.5 2.8,26.6 3.7,32 4.8,34.8 3,37 1,39.5 6.4,39.5 
		7,34.5 9.2,31.1 12.8,31.7 16.9,30.1 19.8,28.5 22.8,30.5 19.3,34.7 15.7,38.1 21.3,38.2 21.3,35.9 21.3,35.9 21.3,35.9 21.3,35.9 
		25.5,32.5 25.6,32.5 27.1,34.4 22.7,40.9 28.3,40.9 28.1,37.7 32.1,33.9 30.1,29.6 29.8,24.3 34,21.9 36.3,22.3 36.3,22.3 
		39.5,21.2 39.5,21.2 40.4,14.6 	"/>
	<path class="st1" d="M32.4,39.2c0.2,0,0.3,0,0.4,0.1c0.1,0.1,0.3,0.2,0.3,0.3c0.1,0.1,0.1,0.3,0.1,0.5c0,0.2,0,0.3-0.1,0.5
		c-0.1,0.1-0.2,0.3-0.3,0.3C32.7,41,32.5,41,32.4,41c-0.2,0-0.3,0-0.5-0.1c-0.1-0.1-0.3-0.2-0.3-0.3c-0.1-0.1-0.1-0.3-0.1-0.5
		c0-0.2,0-0.3,0.1-0.5c0.1-0.1,0.2-0.3,0.3-0.3C32.1,39.2,32.2,39.2,32.4,39.2z M32.4,39.3c-0.1,0-0.3,0-0.4,0.1
		c-0.1,0.1-0.2,0.2-0.3,0.3c-0.1,0.1-0.1,0.2-0.1,0.4c0,0.1,0,0.3,0.1,0.4c0.1,0.1,0.2,0.2,0.3,0.3c0.1,0.1,0.2,0.1,0.4,0.1
		s0.3,0,0.4-0.1c0.1-0.1,0.2-0.2,0.3-0.3c0.1-0.1,0.1-0.2,0.1-0.4c0-0.1,0-0.3-0.1-0.4c-0.1-0.1-0.2-0.2-0.3-0.3
		C32.6,39.4,32.5,39.3,32.4,39.3z M32,40.6v-1h0.3c0.1,0,0.2,0,0.2,0c0.1,0,0.1,0,0.1,0.1c0,0,0,0.1,0,0.1c0,0.1,0,0.1-0.1,0.2
		c-0.1,0.1-0.1,0.1-0.2,0.1c0,0,0.1,0,0.1,0.1c0,0,0.1,0.1,0.1,0.2l0.1,0.2h-0.2l-0.1-0.2c-0.1-0.1-0.1-0.2-0.2-0.2c0,0-0.1,0-0.1,0
		h-0.1v0.4H32z M32.1,40h0.2c0.1,0,0.2,0,0.2,0c0,0,0-0.1,0-0.1c0,0,0-0.1,0-0.1c0,0,0,0-0.1-0.1c0,0-0.1,0-0.2,0h-0.2V40z"/>
	<g>
		<polygon class="st1" points="58.8,24.8 52.7,17.6 57.8,14 55.5,14 47.9,19.6 47.9,14 44.7,14 44.7,24.8 47.9,24.8 47.9,21.3 
			50.4,19.5 54.9,24.8 		"/>
		<polygon class="st1" points="64.2,24.8 67.3,24.8 67.3,20.5 73,14 71.4,14 66.8,19.1 62.4,14 58.8,14 64.2,20.5 		"/>
		<polygon class="st1" points="85.5,23.7 77.4,23.7 77.4,14 74.2,14 74.2,24.8 85.5,24.8 		"/>
		<rect x="87.1" y="14" class="st1" width="3.2" height="10.8"/>
		<polygon class="st1" points="94.6,15.4 101.8,24.8 105.8,24.8 105.8,13.9 104.3,13.9 104.3,23.2 96.5,14 93.1,14 93.1,24.8 
			94.6,24.8 		"/>
		<polygon class="st1" points="44.3,28.2 44.3,28.7 44.2,30.2 45.3,30.3 45.3,29.3 49.9,29.3 49.9,28.2 44.8,28.2 		"/>
		<polygon class="st1" points="55.2,35 54.8,35.3 51.7,37.5 51.7,34.2 58.3,34.2 58.8,34.2 58.8,33.8 58.8,28.7 58.8,28.2 
			58.3,28.2 50.6,28.2 50.6,29.3 57.6,29.3 57.6,30.8 50.5,30.8 50.5,31.8 57.6,31.8 57.6,33.2 51,33.2 50.5,33.2 50.5,33.7 
			50.5,38.8 50.5,39.8 51.3,39.1 55.1,36.6 57.8,39.6 59.5,39.6 55.5,35.4 		"/>
		<rect x="77.1" y="28.2" class="st1" width="6.2" height="0.9"/>
		<rect x="93.3" y="28.2" class="st1" width="6.1" height="0.9"/>
		<path class="st1" d="M105.5,35h1.2V34h-1.2v-0.8h-1V34h-0.8v-2.7l1.8,1.5l1.5,0l-2.7-2.1h2.3v-0.9h-1.9l1.8-1.5l-1.3,0l-1.4,1.1
			v-1.3h-1v1.3l-1.4-1.1l-1.5,0l1.8,1.5h-2.6v0h-5.2h-0.5v0.5v9.6h1.1v-4.9h0.7v3.8v1.1L96,39l2.6-2.3h0v0l0.7-0.6l0.9,0.7l-3.2,2.9
			l1.4,0l4.4-3.9v1.1v0.4h0.5h1.3v2.3h1v-2.3h1.5v-1h-1.5V35z M95.1,33.9h-0.7v-1.4h0.7V33.9z M95.1,31.6h-0.7v-1h0.7V31.6z
			 M97.8,32.5h0.7v1.4h-0.7V32.5z M96.8,37l-0.7,0.6v-0.9h0.7V37z M96.8,35.8h-0.7v-0.9h0.7V35.8z M96.8,33.9h-0.7v-1.4h0.7V33.9z
			 M96.8,31.6h-0.7v-1h0.7V31.6z M98.2,35.8h-0.4v-0.9H99h0.3L98.2,35.8z M100.8,36.1l-0.9-0.7l1.6-1.4l0.8,0.7L100.8,36.1z
			 M102.7,33.9l-1.1-1.1l-0.4,0.4l-1.7,1.5v-0.2v-2.3v-0.5H99h-1.2v-1h0.9v0h3.3l-2.5,2.1l1.5,0l1.7-1.4V33.9z M104.5,36.3h-0.8V35
			h0.8V36.3z"/>
		<polygon class="st1" points="44.3,31.9 45.2,31.9 45.2,33.2 44.3,33.2 44.3,34.2 45.2,34.2 45.2,39.1 45.2,39.6 45.9,39.6 
			49.7,39.6 49.7,38.7 46.4,38.7 46.4,34.2 49.8,34.2 49.8,33.2 46.4,33.2 46.4,31.9 49.9,31.9 49.9,30.8 44.3,30.8 		"/>
		<polygon class="st1" points="60.8,32.8 60.8,33.9 63.8,33.9 60.4,39.6 61.8,39.6 65.3,33.7 66,32.8 64.9,32.8 		"/>
		<rect x="60.8" y="28.4" class="st1" width="5.1" height="1.1"/>
		<path class="st1" d="M67.4,30.6h-0.5v0.7v6.6v0.3h0.5h4.3h0.7v-0.5V31v-0.5h-0.5H67.4z M71.2,37H68v-5.5h3.2V37z"/>
		<polygon class="st1" points="66.8,28.3 66.8,29.5 73.6,29.5 73.6,39.7 74.9,39.7 74.9,29.5 75.4,29.5 75.4,28.3 73.9,28.3 		"/>
		<path class="st1" d="M90.6,30.7h0.7v-1h-0.7v-1.5h-1.3v1.5h-4.3v-1.6h-1.2v1.6h-6.3h-0.5v0.5v9.5h1.1V35h0.7v3.9v0.8l5.1,0v0h1.2
			v-2.5h4.3v2.5h1.2l0-2.5h1v-0.9h-0.9V30.7z M85.1,30.7h3.3l-3.3,2.5V30.7z M81.5,32.8h0.7v1.3h-0.7V32.8z M81.5,35h1.2h0.5v-0.5
			v-2.3v-0.5h-0.5h-1.2v-1.1h2.3v5.5h-2.3V35z M78.8,34.1h-0.7v-1.3h0.7V34.1z M78.8,31.9h-0.7v-1.1h0.7V31.9z M80.5,38.9l-0.7,0
			v-1.7h0.7V38.9z M80.5,36.3h-0.7V35h0.7V36.3z M80.5,34.1h-0.7v-1.3h0.7V34.1z M80.5,31.9h-0.7v-1.1h0.7V31.9z M83.9,38.9l-2.4,0
			v-1.7h2.4V38.9z M89.4,36.3h-3.5l3.5-2.5V36.3z M89.4,32.6l-4.3,3.2v-1.3l4.3-3.3V32.6z"/>
	</g>
</g>
</svg>
