<svg id="图层_76" data-name="图层 76" xmlns="http://www.w3.org/2000/svg" viewBox="0 0 24 24"><defs><style>.cls-1{fill:#fff;}</style></defs><title>设为壁纸</title><path class="cls-1" d="M16.5,21H6.5a.5.5,0,0,0,0,1h10a.5.5,0,0,0,0-1Z"/><path class="cls-1" d="M20,3H3A2,2,0,0,0,1,5V17a2,2,0,0,0,2,2H20a2,2,0,0,0,2-2V5A2,2,0,0,0,20,3ZM2,5A.94.94,0,0,1,3,4H20a.94.94,0,0,1,1,1V15.29L15.3,7.9a.49.49,0,0,0-.4-.2.44.44,0,0,0-.39.19l-6,7.59-2.1-1.86a.52.52,0,0,0-.67,0L2,17.11S2,17,2,17ZM20,18H3a1.24,1.24,0,0,1-.4-.07l3.51-3.26,2.16,1.91a.51.51,0,0,0,.38.12A.47.47,0,0,0,9,16.51L14.9,9l6,7.8.1.08V17A.94.94,0,0,1,20,18Z"/><path class="cls-1" d="M7,10.5A2.5,2.5,0,1,0,4.5,8,2.48,2.48,0,0,0,7,10.5Zm0-4a1.5,1.5,0,0,1,0,3,1.5,1.5,0,0,1,0-3Z"/></svg>