<svg id="图层_76" data-name="图层 76" xmlns="http://www.w3.org/2000/svg" viewBox="0 0 24 24"><defs><style>.cls-1,.cls-3{isolation:isolate;}.cls-2,.cls-3{fill:#fff;}</style></defs><title>设置</title><g class="cls-1"><path class="cls-2" d="M12,8.5A3.56,3.56,0,0,1,15.5,12,3.5,3.5,0,1,1,12,8.5m0-1A4.5,4.5,0,1,0,16.5,12,4.49,4.49,0,0,0,12,7.5Z"/></g><path class="cls-3" d="M21.08,10.21A8.46,8.46,0,0,0,19.7,6.77L20.52,6a.79.79,0,0,0,0-1.12L19.27,3.59a.79.79,0,0,0-1.09,0l-1,.87a10.57,10.57,0,0,0-3.43-1.38V1.79A.79.79,0,0,0,13,1H11a.79.79,0,0,0-.79.79V2.92A8.59,8.59,0,0,0,6.77,4.44L6,3.62a.79.79,0,0,0-1.12,0L3.62,4.84A.79.79,0,0,0,3.62,6l.82.81a6.4,6.4,0,0,0-1.38,3.44H1.79A.79.79,0,0,0,1,11v1.86a.79.79,0,0,0,.79.79H2.92A8.41,8.41,0,0,0,4.3,17.09l-.82.82a.78.78,0,0,0,0,1.11l1.25,1.25a.79.79,0,0,0,1.09,0l1-.88a10.35,10.35,0,0,0,3.43,1.38v1.41A.79.79,0,0,0,11,23h1.86a.79.79,0,0,0,.79-.79V21.08a8.41,8.41,0,0,0,3.44-1.38l.63.63a1,1,0,0,0,1.48,0l1.07-1.06a.79.79,0,0,0,0-1.09l-.88-.95a10.49,10.49,0,0,0,1.38-3.44h1.41A.79.79,0,0,0,23,13V11a.79.79,0,0,0-.79-.79ZM12,20a8.13,8.13,0,0,1-8-8,8.13,8.13,0,0,1,8-8,8.13,8.13,0,0,1,8,8A8.13,8.13,0,0,1,12,20Z"/></svg>